<?xml version="1.0" encoding="utf-8" standalone="no"?>
<!DOCTYPE svg PUBLIC "-//W3C//DTD SVG 1.1//EN"
  "http://www.w3.org/Graphics/SVG/1.1/DTD/svg11.dtd">
<!-- Created with matplotlib (https://matplotlib.org/) -->
<svg height="342.41625pt" version="1.1" viewBox="0 0 1213.676875 342.41625" width="1213.676875pt" xmlns="http://www.w3.org/2000/svg" xmlns:xlink="http://www.w3.org/1999/xlink">
 <metadata>
  <rdf:RDF xmlns:cc="http://creativecommons.org/ns#" xmlns:dc="http://purl.org/dc/elements/1.1/" xmlns:rdf="http://www.w3.org/1999/02/22-rdf-syntax-ns#">
   <cc:Work>
    <dc:type rdf:resource="http://purl.org/dc/dcmitype/StillImage"/>
    <dc:date>2021-12-13T10:30:51.196603</dc:date>
    <dc:format>image/svg+xml</dc:format>
    <dc:creator>
     <cc:Agent>
      <dc:title>Matplotlib v3.3.4, https://matplotlib.org/</dc:title>
     </cc:Agent>
    </dc:creator>
   </cc:Work>
  </rdf:RDF>
 </metadata>
 <defs>
  <style type="text/css">*{stroke-linecap:butt;stroke-linejoin:round;}</style>
 </defs>
 <g id="figure_1">
  <g id="patch_1">
   <path d="M 0 342.41625 
L 1213.676875 342.41625 
L 1213.676875 0 
L 0 0 
z
" style="fill:#ffffff;"/>
  </g>
  <g id="axes_1">
   <g id="patch_2">
    <path d="M 78.99625 281.1175 
L 392.87125 281.1175 
L 392.87125 59.3575 
L 78.99625 59.3575 
z
" style="fill:#ffffff;"/>
   </g>
   <g id="matplotlib.axis_1">
    <g id="xtick_1">
     <g id="line2d_1">
      <defs>
       <path d="M 0 0 
L 0 5 
" id="mfec4f1ae24" style="stroke:#000000;"/>
      </defs>
      <g>
       <use style="stroke:#000000;" x="129.117651" xlink:href="#mfec4f1ae24" y="281.1175"/>
      </g>
     </g>
     <g id="text_1">
      <!-- 03 -->
      <g transform="translate(121.482651 298.735625)scale(0.12 -0.12)">
       <defs>
        <path d="M 31.78125 3.421875 
Q 39.265625 3.421875 42.96875 11.625 
Q 46.6875 19.828125 46.6875 36.375 
Q 46.6875 52.984375 42.96875 61.1875 
Q 39.265625 69.390625 31.78125 69.390625 
Q 24.3125 69.390625 20.59375 61.1875 
Q 16.890625 52.984375 16.890625 36.375 
Q 16.890625 19.828125 20.59375 11.625 
Q 24.3125 3.421875 31.78125 3.421875 
z
M 31.78125 -1.421875 
Q 19.921875 -1.421875 13.25 8.53125 
Q 6.59375 18.5 6.59375 36.375 
Q 6.59375 54.296875 13.25 64.25 
Q 19.921875 74.21875 31.78125 74.21875 
Q 43.703125 74.21875 50.34375 64.25 
Q 56.984375 54.296875 56.984375 36.375 
Q 56.984375 18.5 50.34375 8.53125 
Q 43.703125 -1.421875 31.78125 -1.421875 
z
" id="DejaVuSerif-48"/>
        <path d="M 9.71875 69.828125 
Q 15.4375 71.96875 20.671875 73.09375 
Q 25.921875 74.21875 30.515625 74.21875 
Q 41.21875 74.21875 47.21875 69.59375 
Q 53.21875 64.984375 53.21875 56.78125 
Q 53.21875 50.203125 49.0625 45.78125 
Q 44.921875 41.359375 37.3125 39.796875 
Q 46.296875 38.53125 51.25 33.28125 
Q 56.203125 28.03125 56.203125 19.671875 
Q 56.203125 9.46875 49.34375 4.015625 
Q 42.484375 -1.421875 29.59375 -1.421875 
Q 23.875 -1.421875 18.421875 -0.1875 
Q 12.984375 1.03125 7.625 3.515625 
L 7.625 17.671875 
L 13.09375 17.671875 
Q 13.578125 10.640625 17.828125 7.03125 
Q 22.078125 3.421875 29.78125 3.421875 
Q 37.25 3.421875 41.578125 7.734375 
Q 45.90625 12.0625 45.90625 19.578125 
Q 45.90625 28.171875 41.453125 32.59375 
Q 37.015625 37.015625 28.421875 37.015625 
L 23.78125 37.015625 
L 23.78125 42 
L 26.21875 42 
Q 34.765625 42 39.03125 45.53125 
Q 43.3125 49.078125 43.3125 56.203125 
Q 43.3125 62.59375 39.796875 65.984375 
Q 36.28125 69.390625 29.6875 69.390625 
Q 23.09375 69.390625 19.453125 66.265625 
Q 15.828125 63.140625 15.1875 56.984375 
L 9.71875 56.984375 
z
" id="DejaVuSerif-51"/>
       </defs>
       <use xlink:href="#DejaVuSerif-48"/>
       <use x="63.623047" xlink:href="#DejaVuSerif-51"/>
      </g>
      <!--  Feb -->
      <g transform="translate(115.985151 312.173)scale(0.12 -0.12)">
       <defs>
        <path id="DejaVuSerif-32"/>
        <path d="M 5.515625 0 
L 5.515625 5.171875 
L 14.796875 5.171875 
L 14.796875 67.671875 
L 5.515625 67.671875 
L 5.515625 72.90625 
L 65.1875 72.90625 
L 65.1875 56.6875 
L 59.1875 56.6875 
L 59.1875 66.890625 
L 24.703125 66.890625 
L 24.703125 42.484375 
L 49.609375 42.484375 
L 49.609375 51.609375 
L 55.609375 51.609375 
L 55.609375 27.390625 
L 49.609375 27.390625 
L 49.609375 36.53125 
L 24.703125 36.53125 
L 24.703125 5.171875 
L 36.375 5.171875 
L 36.375 0 
z
" id="DejaVuSerif-70"/>
        <path d="M 54.203125 25 
L 15.484375 25 
L 15.484375 24.609375 
Q 15.484375 14.109375 19.4375 8.765625 
Q 23.390625 3.421875 31.109375 3.421875 
Q 37.015625 3.421875 40.796875 6.515625 
Q 44.578125 9.625 46.09375 15.71875 
L 53.328125 15.71875 
Q 51.171875 7.171875 45.375 2.875 
Q 39.59375 -1.421875 30.171875 -1.421875 
Q 18.796875 -1.421875 11.890625 6.078125 
Q 4.984375 13.578125 4.984375 25.984375 
Q 4.984375 38.28125 11.765625 45.796875 
Q 18.5625 53.328125 29.59375 53.328125 
Q 41.359375 53.328125 47.65625 46.0625 
Q 53.953125 38.8125 54.203125 25 
z
M 43.609375 30.171875 
Q 43.3125 39.265625 39.765625 43.875 
Q 36.234375 48.484375 29.59375 48.484375 
Q 23.390625 48.484375 19.828125 43.84375 
Q 16.265625 39.203125 15.484375 30.171875 
z
" id="DejaVuSerif-101"/>
        <path d="M 11.53125 5.171875 
L 11.53125 70.796875 
L 2.875 70.796875 
L 2.875 75.984375 
L 20.515625 75.984375 
L 20.515625 43.796875 
Q 23.140625 48.6875 27.21875 51 
Q 31.296875 53.328125 37.3125 53.328125 
Q 46.875 53.328125 52.921875 45.75 
Q 58.984375 38.1875 58.984375 25.984375 
Q 58.984375 13.765625 52.921875 6.171875 
Q 46.875 -1.421875 37.3125 -1.421875 
Q 31.296875 -1.421875 27.21875 0.890625 
Q 23.140625 3.21875 20.515625 8.109375 
L 20.515625 0 
L 2.875 0 
L 2.875 5.171875 
z
M 20.515625 23.390625 
Q 20.515625 14.015625 24.09375 9.109375 
Q 27.6875 4.203125 34.515625 4.203125 
Q 41.40625 4.203125 44.9375 9.71875 
Q 48.484375 15.234375 48.484375 25.984375 
Q 48.484375 36.765625 44.9375 42.234375 
Q 41.40625 47.703125 34.515625 47.703125 
Q 27.6875 47.703125 24.09375 42.765625 
Q 20.515625 37.84375 20.515625 28.515625 
z
" id="DejaVuSerif-98"/>
       </defs>
       <use xlink:href="#DejaVuSerif-32"/>
       <use x="31.787109" xlink:href="#DejaVuSerif-70"/>
       <use x="95.671875" xlink:href="#DejaVuSerif-101"/>
       <use x="154.851562" xlink:href="#DejaVuSerif-98"/>
      </g>
     </g>
    </g>
    <g id="xtick_2">
     <g id="line2d_2">
      <g>
       <use style="stroke:#000000;" x="200.826361" xlink:href="#mfec4f1ae24" y="281.1175"/>
      </g>
     </g>
     <g id="text_2">
      <!-- 05 -->
      <g transform="translate(193.191361 298.735625)scale(0.12 -0.12)">
       <defs>
        <path d="M 50.296875 72.90625 
L 50.296875 64.890625 
L 16.890625 64.890625 
L 16.890625 44 
Q 19.4375 45.75 22.828125 46.625 
Q 26.21875 47.515625 30.421875 47.515625 
Q 42.234375 47.515625 49.0625 40.96875 
Q 55.90625 34.421875 55.90625 23.09375 
Q 55.90625 11.53125 49 5.046875 
Q 42.09375 -1.421875 29.59375 -1.421875 
Q 24.5625 -1.421875 19.28125 -0.1875 
Q 14.015625 1.03125 8.5 3.515625 
L 8.5 17.671875 
L 14.015625 17.671875 
Q 14.453125 10.75 18.421875 7.078125 
Q 22.40625 3.421875 29.59375 3.421875 
Q 37.3125 3.421875 41.453125 8.5 
Q 45.609375 13.578125 45.609375 23.09375 
Q 45.609375 32.5625 41.484375 37.609375 
Q 37.359375 42.671875 29.59375 42.671875 
Q 25.203125 42.671875 21.84375 41.109375 
Q 18.5 39.546875 15.921875 36.28125 
L 11.71875 36.28125 
L 11.71875 72.90625 
z
" id="DejaVuSerif-53"/>
       </defs>
       <use xlink:href="#DejaVuSerif-48"/>
       <use x="63.623047" xlink:href="#DejaVuSerif-53"/>
      </g>
      <!--  Feb -->
      <g transform="translate(187.693861 312.173)scale(0.12 -0.12)">
       <use xlink:href="#DejaVuSerif-32"/>
       <use x="31.787109" xlink:href="#DejaVuSerif-70"/>
       <use x="95.671875" xlink:href="#DejaVuSerif-101"/>
       <use x="154.851562" xlink:href="#DejaVuSerif-98"/>
      </g>
     </g>
    </g>
    <g id="xtick_3">
     <g id="line2d_3">
      <g>
       <use style="stroke:#000000;" x="272.535071" xlink:href="#mfec4f1ae24" y="281.1175"/>
      </g>
     </g>
     <g id="text_3">
      <!-- 07 -->
      <g transform="translate(264.900071 298.735625)scale(0.12 -0.12)">
       <defs>
        <path d="M 56.390625 67.921875 
L 27.875 0 
L 20.609375 0 
L 47.796875 64.890625 
L 14.109375 64.890625 
L 14.109375 55.90625 
L 8.40625 55.90625 
L 8.40625 72.90625 
L 56.390625 72.90625 
z
" id="DejaVuSerif-55"/>
       </defs>
       <use xlink:href="#DejaVuSerif-48"/>
       <use x="63.623047" xlink:href="#DejaVuSerif-55"/>
      </g>
      <!--  Feb -->
      <g transform="translate(259.402571 312.173)scale(0.12 -0.12)">
       <use xlink:href="#DejaVuSerif-32"/>
       <use x="31.787109" xlink:href="#DejaVuSerif-70"/>
       <use x="95.671875" xlink:href="#DejaVuSerif-101"/>
       <use x="154.851562" xlink:href="#DejaVuSerif-98"/>
      </g>
     </g>
    </g>
    <g id="xtick_4">
     <g id="line2d_4">
      <g>
       <use style="stroke:#000000;" x="344.243781" xlink:href="#mfec4f1ae24" y="281.1175"/>
      </g>
     </g>
     <g id="text_4">
      <!-- 09 -->
      <g transform="translate(336.608781 298.735625)scale(0.12 -0.12)">
       <defs>
        <path d="M 46.78125 32.671875 
Q 43.5 29 39.25 27.1875 
Q 35.015625 25.390625 29.6875 25.390625 
Q 18.84375 25.390625 12.5625 31.9375 
Q 6.296875 38.484375 6.296875 49.8125 
Q 6.296875 60.890625 13.109375 67.546875 
Q 19.921875 74.21875 31.296875 74.21875 
Q 43.65625 74.21875 50.265625 65.015625 
Q 56.890625 55.8125 56.890625 38.71875 
Q 56.890625 19.578125 49.015625 9.078125 
Q 41.15625 -1.421875 26.90625 -1.421875 
Q 23.046875 -1.421875 18.796875 -0.6875 
Q 14.546875 0.046875 10.109375 1.515625 
L 10.109375 13.625 
L 15.578125 13.625 
Q 16.21875 8.6875 19.390625 6.046875 
Q 22.5625 3.421875 27.875 3.421875 
Q 37.359375 3.421875 41.984375 10.5625 
Q 46.625 17.71875 46.78125 32.671875 
z
M 30.90625 69.390625 
Q 23.96875 69.390625 20.28125 64.328125 
Q 16.609375 59.28125 16.609375 49.8125 
Q 16.609375 40.328125 20.28125 35.25 
Q 23.96875 30.171875 30.90625 30.171875 
Q 37.84375 30.171875 41.53125 35.078125 
Q 45.21875 39.984375 45.21875 49.21875 
Q 45.21875 58.9375 41.5 64.15625 
Q 37.796875 69.390625 30.90625 69.390625 
z
" id="DejaVuSerif-57"/>
       </defs>
       <use xlink:href="#DejaVuSerif-48"/>
       <use x="63.623047" xlink:href="#DejaVuSerif-57"/>
      </g>
      <!--  Feb -->
      <g transform="translate(331.111281 312.173)scale(0.12 -0.12)">
       <use xlink:href="#DejaVuSerif-32"/>
       <use x="31.787109" xlink:href="#DejaVuSerif-70"/>
       <use x="95.671875" xlink:href="#DejaVuSerif-101"/>
       <use x="154.851562" xlink:href="#DejaVuSerif-98"/>
      </g>
     </g>
    </g>
   </g>
   <g id="matplotlib.axis_2">
    <g id="ytick_1">
     <g id="line2d_5">
      <defs>
       <path d="M 0 0 
L -5 0 
" id="mad9e27640a" style="stroke:#000000;"/>
      </defs>
      <g>
       <use style="stroke:#000000;" x="78.99625" xlink:href="#mad9e27640a" y="271.0375"/>
      </g>
     </g>
     <g id="text_5">
      <!-- 0 -->
      <g transform="translate(62.86125 275.596563)scale(0.12 -0.12)">
       <use xlink:href="#DejaVuSerif-48"/>
      </g>
     </g>
    </g>
    <g id="ytick_2">
     <g id="line2d_6">
      <g>
       <use style="stroke:#000000;" x="78.99625" xlink:href="#mad9e27640a" y="245.502135"/>
      </g>
     </g>
     <g id="text_6">
      <!-- 500 -->
      <g transform="translate(47.59125 250.061197)scale(0.12 -0.12)">
       <use xlink:href="#DejaVuSerif-53"/>
       <use x="63.623047" xlink:href="#DejaVuSerif-48"/>
       <use x="127.246094" xlink:href="#DejaVuSerif-48"/>
      </g>
     </g>
    </g>
    <g id="ytick_3">
     <g id="line2d_7">
      <g>
       <use style="stroke:#000000;" x="78.99625" xlink:href="#mad9e27640a" y="219.96677"/>
      </g>
     </g>
     <g id="text_7">
      <!-- 1000 -->
      <g transform="translate(39.95625 224.525832)scale(0.12 -0.12)">
       <defs>
        <path d="M 14.203125 0 
L 14.203125 5.171875 
L 26.90625 5.171875 
L 26.90625 65.828125 
L 12.203125 56.296875 
L 12.203125 62.703125 
L 29.984375 74.21875 
L 36.71875 74.21875 
L 36.71875 5.171875 
L 49.421875 5.171875 
L 49.421875 0 
z
" id="DejaVuSerif-49"/>
       </defs>
       <use xlink:href="#DejaVuSerif-49"/>
       <use x="63.623047" xlink:href="#DejaVuSerif-48"/>
       <use x="127.246094" xlink:href="#DejaVuSerif-48"/>
       <use x="190.869141" xlink:href="#DejaVuSerif-48"/>
      </g>
     </g>
    </g>
    <g id="ytick_4">
     <g id="line2d_8">
      <g>
       <use style="stroke:#000000;" x="78.99625" xlink:href="#mad9e27640a" y="194.431404"/>
      </g>
     </g>
     <g id="text_8">
      <!-- 1500 -->
      <g transform="translate(39.95625 198.990467)scale(0.12 -0.12)">
       <use xlink:href="#DejaVuSerif-49"/>
       <use x="63.623047" xlink:href="#DejaVuSerif-53"/>
       <use x="127.246094" xlink:href="#DejaVuSerif-48"/>
       <use x="190.869141" xlink:href="#DejaVuSerif-48"/>
      </g>
     </g>
    </g>
    <g id="ytick_5">
     <g id="line2d_9">
      <g>
       <use style="stroke:#000000;" x="78.99625" xlink:href="#mad9e27640a" y="168.896039"/>
      </g>
     </g>
     <g id="text_9">
      <!-- 2000 -->
      <g transform="translate(39.95625 173.455102)scale(0.12 -0.12)">
       <defs>
        <path d="M 12.796875 55.515625 
L 7.328125 55.515625 
L 7.328125 68.5 
Q 12.546875 71.296875 17.84375 72.75 
Q 23.140625 74.21875 28.21875 74.21875 
Q 39.59375 74.21875 46.1875 68.703125 
Q 52.78125 63.1875 52.78125 53.71875 
Q 52.78125 43.015625 37.84375 28.125 
Q 36.671875 27 36.078125 26.421875 
L 17.671875 8.015625 
L 48.09375 8.015625 
L 48.09375 17 
L 53.8125 17 
L 53.8125 0 
L 6.78125 0 
L 6.78125 5.328125 
L 28.90625 27.390625 
Q 36.234375 34.71875 39.359375 40.84375 
Q 42.484375 46.96875 42.484375 53.71875 
Q 42.484375 61.078125 38.640625 65.234375 
Q 34.8125 69.390625 28.078125 69.390625 
Q 21.09375 69.390625 17.28125 65.921875 
Q 13.484375 62.453125 12.796875 55.515625 
z
" id="DejaVuSerif-50"/>
       </defs>
       <use xlink:href="#DejaVuSerif-50"/>
       <use x="63.623047" xlink:href="#DejaVuSerif-48"/>
       <use x="127.246094" xlink:href="#DejaVuSerif-48"/>
       <use x="190.869141" xlink:href="#DejaVuSerif-48"/>
      </g>
     </g>
    </g>
    <g id="ytick_6">
     <g id="line2d_10">
      <g>
       <use style="stroke:#000000;" x="78.99625" xlink:href="#mad9e27640a" y="143.360674"/>
      </g>
     </g>
     <g id="text_10">
      <!-- 2500 -->
      <g transform="translate(39.95625 147.919737)scale(0.12 -0.12)">
       <use xlink:href="#DejaVuSerif-50"/>
       <use x="63.623047" xlink:href="#DejaVuSerif-53"/>
       <use x="127.246094" xlink:href="#DejaVuSerif-48"/>
       <use x="190.869141" xlink:href="#DejaVuSerif-48"/>
      </g>
     </g>
    </g>
    <g id="ytick_7">
     <g id="line2d_11">
      <g>
       <use style="stroke:#000000;" x="78.99625" xlink:href="#mad9e27640a" y="117.825309"/>
      </g>
     </g>
     <g id="text_11">
      <!-- 3000 -->
      <g transform="translate(39.95625 122.384371)scale(0.12 -0.12)">
       <use xlink:href="#DejaVuSerif-51"/>
       <use x="63.623047" xlink:href="#DejaVuSerif-48"/>
       <use x="127.246094" xlink:href="#DejaVuSerif-48"/>
       <use x="190.869141" xlink:href="#DejaVuSerif-48"/>
      </g>
     </g>
    </g>
    <g id="ytick_8">
     <g id="line2d_12">
      <g>
       <use style="stroke:#000000;" x="78.99625" xlink:href="#mad9e27640a" y="92.289944"/>
      </g>
     </g>
     <g id="text_12">
      <!-- 3500 -->
      <g transform="translate(39.95625 96.849006)scale(0.12 -0.12)">
       <use xlink:href="#DejaVuSerif-51"/>
       <use x="63.623047" xlink:href="#DejaVuSerif-53"/>
       <use x="127.246094" xlink:href="#DejaVuSerif-48"/>
       <use x="190.869141" xlink:href="#DejaVuSerif-48"/>
      </g>
     </g>
    </g>
    <g id="ytick_9">
     <g id="line2d_13">
      <g>
       <use style="stroke:#000000;" x="78.99625" xlink:href="#mad9e27640a" y="66.754578"/>
      </g>
     </g>
     <g id="text_13">
      <!-- 4000 -->
      <g transform="translate(39.95625 71.313641)scale(0.12 -0.12)">
       <defs>
        <path d="M 34.90625 24.703125 
L 34.90625 63.484375 
L 10.015625 24.703125 
z
M 56.390625 0 
L 23.1875 0 
L 23.1875 5.171875 
L 34.90625 5.171875 
L 34.90625 19.484375 
L 3.078125 19.484375 
L 3.078125 24.8125 
L 35.015625 74.21875 
L 44.671875 74.21875 
L 44.671875 24.703125 
L 58.59375 24.703125 
L 58.59375 19.484375 
L 44.671875 19.484375 
L 44.671875 5.171875 
L 56.390625 5.171875 
z
" id="DejaVuSerif-52"/>
       </defs>
       <use xlink:href="#DejaVuSerif-52"/>
       <use x="63.623047" xlink:href="#DejaVuSerif-48"/>
       <use x="127.246094" xlink:href="#DejaVuSerif-48"/>
       <use x="190.869141" xlink:href="#DejaVuSerif-48"/>
      </g>
     </g>
    </g>
   </g>
   <g id="line2d_14">
    <path clip-path="url(#p7970d83b44)" d="M 93.263295 269.030558 
L 96.251158 268.992316 
L 115.672267 268.973196 
L 117.166199 268.702255 
L 121.647993 268.369989 
L 123.141925 268.369989 
L 126.129788 268.941875 
L 132.105513 269.043009 
L 136.587308 268.941875 
L 138.081239 268.07526 
L 139.575171 268.960422 
L 145.550897 268.992316 
L 151.526622 268.945947 
L 153.020554 268.635572 
L 157.502348 268.613344 
L 158.99628 268.398919 
L 161.984143 268.902791 
L 166.465937 268.954075 
L 170.947731 268.934954 
L 172.441663 268.702255 
L 179.91132 269.030558 
L 187.380978 269.030558 
L 188.874909 268.934954 
L 190.36884 268.407062 
L 191.862772 268.407062 
L 193.356703 268.680027 
L 194.850635 268.680027 
L 196.344566 268.824622 
L 197.838498 268.785538 
L 199.332429 268.941875 
L 205.308155 268.992316 
L 206.802087 268.973196 
L 208.296018 268.785538 
L 209.789949 69.526412 
L 211.283881 268.863706 
L 214.271744 268.992316 
L 220.24747 268.934954 
L 224.729264 268.453044 
L 226.223196 268.680027 
L 229.211058 268.635572 
L 238.174647 269.059128 
L 244.150373 268.980959 
L 245.644304 268.902791 
L 248.632167 269.049679 
L 259.089688 269.011437 
L 260.583619 268.746711 
L 265.065413 268.635572 
L 266.559345 268.746711 
L 268.053276 268.333633 
L 269.547208 268.333633 
L 271.041139 268.746711 
L 272.535071 268.934954 
L 278.510797 268.954075 
L 281.49866 268.863706 
L 284.486522 269.030558 
L 290.462248 269.059128 
L 294.944043 268.992316 
L 296.437974 268.824622 
L 297.931906 268.407062 
L 299.425837 268.407062 
L 300.919769 268.680027 
L 315.859083 268.635572 
L 317.353015 69.4375 
L 318.846946 268.785538 
L 320.340878 268.941875 
L 330.798398 268.980959 
L 332.292329 268.874381 
L 335.280192 268.453044 
L 338.268055 268.453044 
L 339.761987 268.635572 
L 341.255918 268.453044 
L 344.243781 268.702255 
L 345.737712 268.568889 
L 348.725575 268.680027 
L 353.20737 268.466405 
L 354.701301 268.824622 
L 357.689164 268.980959 
L 366.652753 268.941875 
L 368.146684 268.635572 
L 369.640616 268.702255 
L 371.134547 268.398919 
L 372.628479 268.398919 
L 374.12241 268.635572 
L 375.616342 268.702255 
L 377.110273 268.934954 
L 378.604205 268.941875 
L 378.604205 268.941875 
" style="fill:none;stroke:#396ab1;stroke-linecap:square;"/>
   </g>
   <g id="line2d_15">
    <path clip-path="url(#p7970d83b44)" d="M 93.263295 269.81743 
L 94.757227 268.978798 
L 102.226884 268.978798 
L 103.720816 271.0375 
L 111.190473 271.0375 
L 112.684404 269.087921 
L 114.178336 269.011437 
L 115.672267 269.059128 
L 117.166199 268.824622 
L 123.141925 268.824622 
L 127.623719 269.296801 
L 129.117651 269.45694 
L 130.611582 269.087921 
L 132.105513 269.51282 
L 133.599445 269.098213 
L 138.081239 268.934954 
L 139.575171 269.030558 
L 141.069102 271.0375 
L 147.044828 271.0375 
L 148.53876 269.098213 
L 151.526622 268.980959 
L 154.514485 268.635572 
L 157.502348 268.635572 
L 163.478074 269.030558 
L 166.465937 269.030558 
L 170.947731 268.993292 
L 173.935594 268.766732 
L 179.91132 269.68046 
L 181.405252 269.73634 
L 182.899183 269.68046 
L 184.393115 269.51282 
L 185.887046 269.51282 
L 187.380978 269.34518 
L 188.874909 268.826004 
L 190.36884 268.635572 
L 194.850635 268.912104 
L 196.344566 268.853812 
L 199.332429 269.011437 
L 200.826361 269.087921 
L 203.814224 269.087921 
L 206.802087 269.030558 
L 209.789949 268.824622 
L 211.283881 269.087921 
L 212.777812 271.0375 
L 218.753538 271.0375 
L 220.24747 269.0688 
L 223.235333 268.934954 
L 224.729264 268.783897 
L 230.70499 268.785538 
L 232.198921 268.980959 
L 236.680716 268.992316 
L 244.150373 268.809995 
L 245.644304 268.671589 
L 248.632167 269.106338 
L 250.126099 271.0375 
L 256.101825 271.0375 
L 257.595756 269.098213 
L 259.089688 269.34518 
L 260.583619 268.828565 
L 268.053276 269.011437 
L 269.547208 269.2893 
L 271.041139 269.2893 
L 272.535071 269.611793 
L 274.029002 268.917961 
L 278.510797 268.989272 
L 281.49866 268.828565 
L 282.992591 271.0375 
L 294.944043 271.0375 
L 296.437974 268.868742 
L 299.425837 268.753713 
L 305.401563 268.876899 
L 308.389426 268.973196 
L 318.846946 269.020044 
L 320.340878 271.0375 
L 327.810535 271.0375 
L 329.304466 269.098213 
L 330.798398 269.020044 
L 335.280192 268.234706 
L 338.268055 268.234706 
L 339.761987 268.795372 
L 341.255918 268.934954 
L 348.725575 268.863706 
L 353.20737 268.863706 
L 354.701301 268.992316 
L 356.195233 271.0375 
L 365.158821 271.0375 
L 366.652753 269.049679 
L 368.146684 268.315099 
L 369.640616 268.863706 
L 378.604205 268.992316 
L 378.604205 268.992316 
" style="fill:none;stroke:#cc2529;stroke-linecap:square;"/>
   </g>
   <g id="patch_3">
    <path d="M 78.99625 281.1175 
L 78.99625 59.3575 
" style="fill:none;stroke:#000000;stroke-linecap:square;stroke-linejoin:miter;stroke-width:0.8;"/>
   </g>
   <g id="patch_4">
    <path d="M 78.99625 281.1175 
L 392.87125 281.1175 
" style="fill:none;stroke:#000000;stroke-linecap:square;stroke-linejoin:miter;stroke-width:0.8;"/>
   </g>
   <g id="text_14">
    <!-- 1 -->
    <g transform="translate(230.84375 19.3575)scale(0.16 -0.16)">
     <use xlink:href="#DejaVuSerif-49"/>
    </g>
   </g>
  </g>
  <g id="axes_2">
   <g id="patch_5">
    <path d="M 424.25875 281.1175 
L 738.13375 281.1175 
L 738.13375 59.3575 
L 424.25875 59.3575 
z
" style="fill:#ffffff;"/>
   </g>
   <g id="matplotlib.axis_3">
    <g id="xtick_5">
     <g id="line2d_16">
      <g>
       <use style="stroke:#000000;" x="474.380151" xlink:href="#mfec4f1ae24" y="281.1175"/>
      </g>
     </g>
     <g id="text_15">
      <!-- 03 -->
      <g transform="translate(466.745151 298.735625)scale(0.12 -0.12)">
       <use xlink:href="#DejaVuSerif-48"/>
       <use x="63.623047" xlink:href="#DejaVuSerif-51"/>
      </g>
      <!--  Feb -->
      <g transform="translate(461.247651 312.173)scale(0.12 -0.12)">
       <use xlink:href="#DejaVuSerif-32"/>
       <use x="31.787109" xlink:href="#DejaVuSerif-70"/>
       <use x="95.671875" xlink:href="#DejaVuSerif-101"/>
       <use x="154.851562" xlink:href="#DejaVuSerif-98"/>
      </g>
     </g>
    </g>
    <g id="xtick_6">
     <g id="line2d_17">
      <g>
       <use style="stroke:#000000;" x="546.088861" xlink:href="#mfec4f1ae24" y="281.1175"/>
      </g>
     </g>
     <g id="text_16">
      <!-- 05 -->
      <g transform="translate(538.453861 298.735625)scale(0.12 -0.12)">
       <use xlink:href="#DejaVuSerif-48"/>
       <use x="63.623047" xlink:href="#DejaVuSerif-53"/>
      </g>
      <!--  Feb -->
      <g transform="translate(532.956361 312.173)scale(0.12 -0.12)">
       <use xlink:href="#DejaVuSerif-32"/>
       <use x="31.787109" xlink:href="#DejaVuSerif-70"/>
       <use x="95.671875" xlink:href="#DejaVuSerif-101"/>
       <use x="154.851562" xlink:href="#DejaVuSerif-98"/>
      </g>
     </g>
    </g>
    <g id="xtick_7">
     <g id="line2d_18">
      <g>
       <use style="stroke:#000000;" x="617.797571" xlink:href="#mfec4f1ae24" y="281.1175"/>
      </g>
     </g>
     <g id="text_17">
      <!-- 07 -->
      <g transform="translate(610.162571 298.735625)scale(0.12 -0.12)">
       <use xlink:href="#DejaVuSerif-48"/>
       <use x="63.623047" xlink:href="#DejaVuSerif-55"/>
      </g>
      <!--  Feb -->
      <g transform="translate(604.665071 312.173)scale(0.12 -0.12)">
       <use xlink:href="#DejaVuSerif-32"/>
       <use x="31.787109" xlink:href="#DejaVuSerif-70"/>
       <use x="95.671875" xlink:href="#DejaVuSerif-101"/>
       <use x="154.851562" xlink:href="#DejaVuSerif-98"/>
      </g>
     </g>
    </g>
    <g id="xtick_8">
     <g id="line2d_19">
      <g>
       <use style="stroke:#000000;" x="689.506281" xlink:href="#mfec4f1ae24" y="281.1175"/>
      </g>
     </g>
     <g id="text_18">
      <!-- 09 -->
      <g transform="translate(681.871281 298.735625)scale(0.12 -0.12)">
       <use xlink:href="#DejaVuSerif-48"/>
       <use x="63.623047" xlink:href="#DejaVuSerif-57"/>
      </g>
      <!--  Feb -->
      <g transform="translate(676.373781 312.173)scale(0.12 -0.12)">
       <use xlink:href="#DejaVuSerif-32"/>
       <use x="31.787109" xlink:href="#DejaVuSerif-70"/>
       <use x="95.671875" xlink:href="#DejaVuSerif-101"/>
       <use x="154.851562" xlink:href="#DejaVuSerif-98"/>
      </g>
     </g>
    </g>
   </g>
   <g id="matplotlib.axis_4">
    <g id="ytick_10">
     <g id="line2d_20">
      <g>
       <use style="stroke:#000000;" x="424.25875" xlink:href="#mad9e27640a" y="271.0375"/>
      </g>
     </g>
    </g>
    <g id="ytick_11">
     <g id="line2d_21">
      <g>
       <use style="stroke:#000000;" x="424.25875" xlink:href="#mad9e27640a" y="245.502135"/>
      </g>
     </g>
    </g>
    <g id="ytick_12">
     <g id="line2d_22">
      <g>
       <use style="stroke:#000000;" x="424.25875" xlink:href="#mad9e27640a" y="219.96677"/>
      </g>
     </g>
    </g>
    <g id="ytick_13">
     <g id="line2d_23">
      <g>
       <use style="stroke:#000000;" x="424.25875" xlink:href="#mad9e27640a" y="194.431404"/>
      </g>
     </g>
    </g>
    <g id="ytick_14">
     <g id="line2d_24">
      <g>
       <use style="stroke:#000000;" x="424.25875" xlink:href="#mad9e27640a" y="168.896039"/>
      </g>
     </g>
    </g>
    <g id="ytick_15">
     <g id="line2d_25">
      <g>
       <use style="stroke:#000000;" x="424.25875" xlink:href="#mad9e27640a" y="143.360674"/>
      </g>
     </g>
    </g>
    <g id="ytick_16">
     <g id="line2d_26">
      <g>
       <use style="stroke:#000000;" x="424.25875" xlink:href="#mad9e27640a" y="117.825309"/>
      </g>
     </g>
    </g>
    <g id="ytick_17">
     <g id="line2d_27">
      <g>
       <use style="stroke:#000000;" x="424.25875" xlink:href="#mad9e27640a" y="92.289944"/>
      </g>
     </g>
    </g>
    <g id="ytick_18">
     <g id="line2d_28">
      <g>
       <use style="stroke:#000000;" x="424.25875" xlink:href="#mad9e27640a" y="66.754578"/>
      </g>
     </g>
    </g>
   </g>
   <g id="line2d_29">
    <path clip-path="url(#p1ed4e4aa51)" d="M 438.525795 269.030558 
L 441.513658 268.992316 
L 460.934767 268.973196 
L 462.428699 268.702255 
L 466.910493 268.369989 
L 468.404425 268.369989 
L 471.392288 268.941875 
L 472.886219 268.84771 
L 474.380151 268.992316 
L 480.355876 268.992316 
L 481.849808 268.941875 
L 483.343739 264.439669 
L 484.837671 268.927327 
L 489.319465 269.011437 
L 496.789122 268.888626 
L 498.283054 268.635572 
L 502.764848 268.613344 
L 504.25878 268.398919 
L 507.246643 268.902791 
L 511.728437 268.954075 
L 516.210231 268.934954 
L 517.704163 268.702255 
L 525.17382 269.030558 
L 532.643478 269.030558 
L 534.137409 268.934954 
L 535.63134 268.407062 
L 537.125272 268.407062 
L 538.619203 268.680027 
L 540.113135 268.680027 
L 541.607066 268.824622 
L 543.100998 268.785538 
L 544.594929 268.941875 
L 550.570655 268.992316 
L 552.064587 268.973196 
L 553.558518 268.785538 
L 555.052449 69.526412 
L 556.546381 268.863706 
L 559.534244 268.992316 
L 565.50997 268.934954 
L 569.991764 268.453044 
L 571.485696 268.680027 
L 574.473558 268.635572 
L 583.437147 269.059128 
L 589.412873 268.980959 
L 590.906804 268.902791 
L 593.894667 269.049679 
L 604.352188 269.011437 
L 605.846119 268.746711 
L 610.327913 268.635572 
L 611.821845 268.746711 
L 613.315776 268.333633 
L 614.809708 268.333633 
L 616.303639 268.746711 
L 617.797571 268.934954 
L 623.773297 268.954075 
L 626.76116 268.863706 
L 629.749022 269.030558 
L 635.724748 269.059128 
L 640.206543 268.992316 
L 641.700474 268.824622 
L 643.194406 268.407062 
L 644.688337 268.407062 
L 646.182269 268.680027 
L 661.121583 268.635572 
L 662.615515 69.4375 
L 664.109446 268.785538 
L 665.603378 268.941875 
L 676.060898 268.980959 
L 677.554829 268.656915 
L 679.048761 268.613344 
L 680.542692 268.453044 
L 683.530555 268.453044 
L 685.024487 268.635572 
L 686.518418 268.453044 
L 689.506281 268.702255 
L 691.000212 268.568889 
L 693.988075 268.680027 
L 698.46987 268.466405 
L 699.963801 268.824622 
L 702.951664 268.980959 
L 711.915253 268.941875 
L 713.409184 268.635572 
L 714.903116 268.702255 
L 716.397047 268.398919 
L 717.890979 268.398919 
L 719.38491 268.635572 
L 720.878842 268.702255 
L 722.372773 268.934954 
L 723.866705 268.941875 
L 723.866705 268.941875 
" style="fill:none;stroke:#396ab1;stroke-linecap:square;"/>
   </g>
   <g id="line2d_30">
    <path clip-path="url(#p1ed4e4aa51)" d="M 438.525795 269.876192 
L 440.019727 269.077951 
L 447.489384 269.077951 
L 448.983316 271.0375 
L 456.452973 271.0375 
L 457.946904 269.087921 
L 459.440836 269.011437 
L 460.934767 269.059128 
L 462.428699 268.824622 
L 468.404425 268.824622 
L 472.886219 269.296801 
L 474.380151 269.45694 
L 475.874082 269.087921 
L 477.368013 269.51282 
L 478.861945 269.098213 
L 483.343739 268.934954 
L 484.837671 269.030558 
L 486.331602 271.0375 
L 492.307328 271.0375 
L 493.80126 269.098213 
L 496.789122 268.980959 
L 498.283054 268.290498 
L 499.776985 268.635572 
L 502.764848 268.635572 
L 508.740574 269.030558 
L 511.728437 269.030558 
L 517.704163 268.991715 
L 519.198094 268.875787 
L 520.692026 268.993292 
L 523.679889 269.51282 
L 526.667752 269.73634 
L 528.161683 269.68046 
L 529.655615 269.51282 
L 531.149546 269.51282 
L 532.643478 269.34518 
L 534.137409 268.927344 
L 535.63134 268.635572 
L 540.113135 268.863542 
L 541.607066 268.853812 
L 544.594929 269.011437 
L 546.088861 269.087921 
L 549.076724 269.087921 
L 552.064587 269.030558 
L 555.052449 268.824622 
L 556.546381 269.087921 
L 558.040312 271.0375 
L 564.016038 271.0375 
L 565.50997 269.0688 
L 568.497833 268.934954 
L 569.991764 268.783897 
L 575.96749 268.785538 
L 577.461421 268.980959 
L 581.943216 268.992316 
L 584.931079 268.992316 
L 586.42501 269.06707 
L 589.412873 268.917278 
L 590.906804 268.785538 
L 593.894667 269.199348 
L 595.388599 271.0375 
L 601.364325 271.0375 
L 602.858256 269.098213 
L 604.352188 269.34518 
L 605.846119 268.934954 
L 608.833982 268.863706 
L 613.315776 269.011437 
L 614.809708 269.2893 
L 616.303639 269.2893 
L 617.797571 269.68046 
L 619.291502 269.020044 
L 623.773297 269.087921 
L 626.76116 268.934954 
L 628.255091 271.0375 
L 640.206543 271.0375 
L 641.700474 268.973196 
L 644.688337 268.863706 
L 664.109446 269.020044 
L 665.603378 271.0375 
L 673.073035 271.0375 
L 674.566966 269.098213 
L 676.060898 269.020044 
L 680.542692 268.234706 
L 683.530555 268.234706 
L 685.024487 268.795372 
L 686.518418 268.934954 
L 693.988075 268.863706 
L 698.46987 268.863706 
L 699.963801 268.992316 
L 701.457733 271.0375 
L 710.421321 271.0375 
L 711.915253 269.049679 
L 713.409184 268.315099 
L 714.903116 268.863706 
L 716.397047 268.643485 
L 723.866705 268.992316 
L 723.866705 268.992316 
" style="fill:none;stroke:#cc2529;stroke-linecap:square;"/>
   </g>
   <g id="patch_6">
    <path d="M 424.25875 281.1175 
L 424.25875 59.3575 
" style="fill:none;stroke:#000000;stroke-linecap:square;stroke-linejoin:miter;stroke-width:0.8;"/>
   </g>
   <g id="patch_7">
    <path d="M 424.25875 281.1175 
L 738.13375 281.1175 
" style="fill:none;stroke:#000000;stroke-linecap:square;stroke-linejoin:miter;stroke-width:0.8;"/>
   </g>
   <g id="text_19">
    <!-- 2 -->
    <g transform="translate(576.10625 19.3575)scale(0.16 -0.16)">
     <use xlink:href="#DejaVuSerif-50"/>
    </g>
   </g>
  </g>
  <g id="axes_3">
   <g id="patch_8">
    <path d="M 769.52125 281.1175 
L 1083.39625 281.1175 
L 1083.39625 59.3575 
L 769.52125 59.3575 
z
" style="fill:#ffffff;"/>
   </g>
   <g id="matplotlib.axis_5">
    <g id="xtick_9">
     <g id="line2d_31">
      <g>
       <use style="stroke:#000000;" x="819.642651" xlink:href="#mfec4f1ae24" y="281.1175"/>
      </g>
     </g>
     <g id="text_20">
      <!-- 03 -->
      <g transform="translate(812.007651 298.735625)scale(0.12 -0.12)">
       <use xlink:href="#DejaVuSerif-48"/>
       <use x="63.623047" xlink:href="#DejaVuSerif-51"/>
      </g>
      <!--  Feb -->
      <g transform="translate(806.510151 312.173)scale(0.12 -0.12)">
       <use xlink:href="#DejaVuSerif-32"/>
       <use x="31.787109" xlink:href="#DejaVuSerif-70"/>
       <use x="95.671875" xlink:href="#DejaVuSerif-101"/>
       <use x="154.851562" xlink:href="#DejaVuSerif-98"/>
      </g>
     </g>
    </g>
    <g id="xtick_10">
     <g id="line2d_32">
      <g>
       <use style="stroke:#000000;" x="891.351361" xlink:href="#mfec4f1ae24" y="281.1175"/>
      </g>
     </g>
     <g id="text_21">
      <!-- 05 -->
      <g transform="translate(883.716361 298.735625)scale(0.12 -0.12)">
       <use xlink:href="#DejaVuSerif-48"/>
       <use x="63.623047" xlink:href="#DejaVuSerif-53"/>
      </g>
      <!--  Feb -->
      <g transform="translate(878.218861 312.173)scale(0.12 -0.12)">
       <use xlink:href="#DejaVuSerif-32"/>
       <use x="31.787109" xlink:href="#DejaVuSerif-70"/>
       <use x="95.671875" xlink:href="#DejaVuSerif-101"/>
       <use x="154.851562" xlink:href="#DejaVuSerif-98"/>
      </g>
     </g>
    </g>
    <g id="xtick_11">
     <g id="line2d_33">
      <g>
       <use style="stroke:#000000;" x="963.060071" xlink:href="#mfec4f1ae24" y="281.1175"/>
      </g>
     </g>
     <g id="text_22">
      <!-- 07 -->
      <g transform="translate(955.425071 298.735625)scale(0.12 -0.12)">
       <use xlink:href="#DejaVuSerif-48"/>
       <use x="63.623047" xlink:href="#DejaVuSerif-55"/>
      </g>
      <!--  Feb -->
      <g transform="translate(949.927571 312.173)scale(0.12 -0.12)">
       <use xlink:href="#DejaVuSerif-32"/>
       <use x="31.787109" xlink:href="#DejaVuSerif-70"/>
       <use x="95.671875" xlink:href="#DejaVuSerif-101"/>
       <use x="154.851562" xlink:href="#DejaVuSerif-98"/>
      </g>
     </g>
    </g>
    <g id="xtick_12">
     <g id="line2d_34">
      <g>
       <use style="stroke:#000000;" x="1034.768781" xlink:href="#mfec4f1ae24" y="281.1175"/>
      </g>
     </g>
     <g id="text_23">
      <!-- 09 -->
      <g transform="translate(1027.133781 298.735625)scale(0.12 -0.12)">
       <use xlink:href="#DejaVuSerif-48"/>
       <use x="63.623047" xlink:href="#DejaVuSerif-57"/>
      </g>
      <!--  Feb -->
      <g transform="translate(1021.636281 312.173)scale(0.12 -0.12)">
       <use xlink:href="#DejaVuSerif-32"/>
       <use x="31.787109" xlink:href="#DejaVuSerif-70"/>
       <use x="95.671875" xlink:href="#DejaVuSerif-101"/>
       <use x="154.851562" xlink:href="#DejaVuSerif-98"/>
      </g>
     </g>
    </g>
   </g>
   <g id="matplotlib.axis_6">
    <g id="ytick_19">
     <g id="line2d_35">
      <g>
       <use style="stroke:#000000;" x="769.52125" xlink:href="#mad9e27640a" y="271.0375"/>
      </g>
     </g>
    </g>
    <g id="ytick_20">
     <g id="line2d_36">
      <g>
       <use style="stroke:#000000;" x="769.52125" xlink:href="#mad9e27640a" y="245.502135"/>
      </g>
     </g>
    </g>
    <g id="ytick_21">
     <g id="line2d_37">
      <g>
       <use style="stroke:#000000;" x="769.52125" xlink:href="#mad9e27640a" y="219.96677"/>
      </g>
     </g>
    </g>
    <g id="ytick_22">
     <g id="line2d_38">
      <g>
       <use style="stroke:#000000;" x="769.52125" xlink:href="#mad9e27640a" y="194.431404"/>
      </g>
     </g>
    </g>
    <g id="ytick_23">
     <g id="line2d_39">
      <g>
       <use style="stroke:#000000;" x="769.52125" xlink:href="#mad9e27640a" y="168.896039"/>
      </g>
     </g>
    </g>
    <g id="ytick_24">
     <g id="line2d_40">
      <g>
       <use style="stroke:#000000;" x="769.52125" xlink:href="#mad9e27640a" y="143.360674"/>
      </g>
     </g>
    </g>
    <g id="ytick_25">
     <g id="line2d_41">
      <g>
       <use style="stroke:#000000;" x="769.52125" xlink:href="#mad9e27640a" y="117.825309"/>
      </g>
     </g>
    </g>
    <g id="ytick_26">
     <g id="line2d_42">
      <g>
       <use style="stroke:#000000;" x="769.52125" xlink:href="#mad9e27640a" y="92.289944"/>
      </g>
     </g>
    </g>
    <g id="ytick_27">
     <g id="line2d_43">
      <g>
       <use style="stroke:#000000;" x="769.52125" xlink:href="#mad9e27640a" y="66.754578"/>
      </g>
     </g>
    </g>
   </g>
   <g id="line2d_44">
    <path clip-path="url(#pb13ab469e1)" d="M 783.788295 269.030558 
L 786.776158 268.992316 
L 806.197267 268.973196 
L 807.691199 268.702255 
L 812.172993 268.369989 
L 813.666925 268.369989 
L 816.654788 268.941875 
L 818.148719 268.484701 
L 819.642651 268.992316 
L 825.618376 268.992316 
L 827.112308 268.941875 
L 828.606239 255.211463 
L 830.100171 268.843321 
L 831.594102 268.992316 
L 839.06376 268.980959 
L 840.557691 268.954075 
L 842.051622 268.404641 
L 843.545554 268.635572 
L 848.027348 268.613344 
L 849.52128 268.398919 
L 852.509143 268.902791 
L 856.990937 268.954075 
L 861.472731 268.934954 
L 862.966663 268.702255 
L 870.43632 269.030558 
L 877.905978 269.030558 
L 879.399909 268.934954 
L 880.89384 268.407062 
L 882.387772 268.407062 
L 883.881703 268.680027 
L 885.375635 268.680027 
L 886.869566 268.824622 
L 888.363498 268.785538 
L 889.857429 268.941875 
L 895.833155 268.992316 
L 897.327087 268.973196 
L 898.821018 268.785538 
L 900.314949 69.526412 
L 901.808881 268.863706 
L 904.796744 268.992316 
L 910.77247 268.934954 
L 915.254264 268.453044 
L 916.748196 268.680027 
L 919.736058 268.635572 
L 928.699647 269.059128 
L 934.675373 268.980959 
L 936.169304 268.902791 
L 939.157167 269.049679 
L 949.614688 269.011437 
L 951.108619 268.746711 
L 955.590413 268.635572 
L 957.084345 268.746711 
L 958.578276 268.333633 
L 960.072208 268.333633 
L 961.566139 268.746711 
L 963.060071 268.934954 
L 969.035797 268.954075 
L 972.02366 268.863706 
L 975.011522 269.030558 
L 980.987248 269.059128 
L 985.469043 268.992316 
L 986.962974 268.824622 
L 988.456906 268.407062 
L 989.950837 268.407062 
L 991.444769 268.680027 
L 1006.384083 268.635572 
L 1007.878015 69.4375 
L 1009.371946 268.785538 
L 1010.865878 268.941875 
L 1021.323398 268.980959 
L 1022.817329 268.104923 
L 1024.311261 268.613344 
L 1025.805192 268.453044 
L 1028.793055 268.453044 
L 1030.286987 268.635572 
L 1031.780918 268.453044 
L 1034.768781 268.702255 
L 1036.262712 268.568889 
L 1039.250575 268.680027 
L 1043.73237 268.466405 
L 1045.226301 268.824622 
L 1048.214164 268.980959 
L 1057.177753 268.941875 
L 1058.671684 268.635572 
L 1060.165616 268.702255 
L 1061.659547 268.398919 
L 1063.153479 268.398919 
L 1064.64741 268.635572 
L 1066.141342 268.702255 
L 1067.635273 268.934954 
L 1069.129205 268.941875 
L 1069.129205 268.941875 
" style="fill:none;stroke:#396ab1;stroke-linecap:square;"/>
   </g>
   <g id="line2d_45">
    <path clip-path="url(#pb13ab469e1)" d="M 783.788295 269.776979 
L 785.282227 268.910543 
L 792.751884 268.910543 
L 794.245816 271.0375 
L 801.715473 271.0375 
L 803.209404 269.087921 
L 804.703336 269.011437 
L 806.197267 269.059128 
L 807.691199 268.824622 
L 813.666925 268.824622 
L 818.148719 269.296801 
L 819.642651 269.45694 
L 821.136582 269.087921 
L 822.630513 269.51282 
L 824.124445 269.098213 
L 828.606239 268.934954 
L 830.100171 269.030558 
L 831.594102 271.0375 
L 837.569828 271.0375 
L 839.06376 269.098213 
L 842.051622 268.980959 
L 843.545554 266.935134 
L 845.039485 268.635572 
L 848.027348 268.635572 
L 854.003074 269.030558 
L 856.990937 269.030558 
L 862.966663 268.943763 
L 864.460594 268.799721 
L 867.448457 269.2893 
L 870.43632 269.68046 
L 871.930252 269.73634 
L 873.424183 269.68046 
L 874.918115 269.51282 
L 876.412046 269.51282 
L 877.905978 269.34518 
L 879.399909 268.85666 
L 880.89384 268.635572 
L 883.881703 268.853812 
L 885.375635 268.740278 
L 891.351361 269.087921 
L 894.339224 269.087921 
L 897.327087 269.030558 
L 900.314949 268.824622 
L 901.808881 269.087921 
L 903.302812 271.0375 
L 909.278538 271.0375 
L 910.77247 269.0688 
L 913.760333 268.934954 
L 915.254264 268.783897 
L 921.22999 268.785538 
L 922.723921 268.980959 
L 927.205716 268.992316 
L 933.181442 268.859101 
L 936.169304 268.593148 
L 939.157167 269.042312 
L 940.651099 271.0375 
L 946.626825 271.0375 
L 948.120756 269.098213 
L 949.614688 269.34518 
L 951.108619 268.755329 
L 954.096482 268.863706 
L 958.578276 269.011437 
L 960.072208 269.2893 
L 961.566139 269.2893 
L 963.060071 269.564525 
L 964.554002 268.847689 
L 969.035797 268.921365 
L 972.02366 268.755329 
L 973.517591 271.0375 
L 985.469043 271.0375 
L 986.962974 268.796838 
L 989.950837 268.677995 
L 995.926563 268.805265 
L 997.420494 268.954075 
L 1006.384083 268.973196 
L 1009.371946 269.020044 
L 1010.865878 271.0375 
L 1018.335535 271.0375 
L 1019.829466 269.098213 
L 1021.323398 269.020044 
L 1025.805192 268.234706 
L 1028.793055 268.234706 
L 1030.286987 268.795372 
L 1031.780918 268.934954 
L 1039.250575 268.863706 
L 1043.73237 268.863706 
L 1045.226301 268.992316 
L 1046.720233 271.0375 
L 1055.683821 271.0375 
L 1057.177753 269.049679 
L 1058.671684 268.315099 
L 1060.165616 268.863706 
L 1061.659547 268.004626 
L 1063.153479 268.330989 
L 1064.64741 268.331423 
L 1067.635273 268.973196 
L 1069.129205 268.992316 
L 1069.129205 268.992316 
" style="fill:none;stroke:#cc2529;stroke-linecap:square;"/>
   </g>
   <g id="patch_9">
    <path d="M 769.52125 281.1175 
L 769.52125 59.3575 
" style="fill:none;stroke:#000000;stroke-linecap:square;stroke-linejoin:miter;stroke-width:0.8;"/>
   </g>
   <g id="patch_10">
    <path d="M 769.52125 281.1175 
L 1083.39625 281.1175 
" style="fill:none;stroke:#000000;stroke-linecap:square;stroke-linejoin:miter;stroke-width:0.8;"/>
   </g>
   <g id="text_24">
    <!-- 3 -->
    <g transform="translate(921.36875 19.3575)scale(0.16 -0.16)">
     <use xlink:href="#DejaVuSerif-51"/>
    </g>
   </g>
   <g id="legend_1">
    <g id="patch_11">
     <path d="M 1091.79625 275.1175 
L 1204.076875 275.1175 
Q 1206.476875 275.1175 1206.476875 272.7175 
L 1206.476875 238.519375 
Q 1206.476875 236.119375 1204.076875 236.119375 
L 1091.79625 236.119375 
Q 1089.39625 236.119375 1089.39625 238.519375 
L 1089.39625 272.7175 
Q 1089.39625 275.1175 1091.79625 275.1175 
z
" style="fill:#ffffff;opacity:0.8;stroke:#cccccc;stroke-linejoin:miter;"/>
    </g>
    <g id="line2d_46">
     <path d="M 1094.19625 245.8375 
L 1118.19625 245.8375 
" style="fill:none;stroke:#396ab1;stroke-linecap:square;"/>
    </g>
    <g id="line2d_47"/>
    <g id="text_25">
     <!-- Base DA -->
     <g transform="translate(1127.79625 250.0375)scale(0.12 -0.12)">
      <defs>
       <path d="M 24.703125 5.171875 
L 39.3125 5.171875 
Q 48.09375 5.171875 52.140625 8.984375 
Q 56.203125 12.796875 56.203125 21.09375 
Q 56.203125 29.34375 52.171875 33.125 
Q 48.140625 36.921875 39.3125 36.921875 
L 24.703125 36.921875 
z
M 24.703125 42.09375 
L 37.109375 42.09375 
Q 45.125 42.09375 48.796875 45.171875 
Q 52.484375 48.25 52.484375 54.890625 
Q 52.484375 61.578125 48.796875 64.625 
Q 45.125 67.671875 37.109375 67.671875 
L 24.703125 67.671875 
z
M 5.515625 0 
L 5.515625 5.171875 
L 14.796875 5.171875 
L 14.796875 67.671875 
L 5.515625 67.671875 
L 5.515625 72.90625 
L 41.5 72.90625 
Q 52.546875 72.90625 58.125 68.390625 
Q 63.71875 63.875 63.71875 54.890625 
Q 63.71875 48.390625 59.828125 44.53125 
Q 55.953125 40.671875 48.484375 39.796875 
Q 57.765625 38.625 62.578125 33.859375 
Q 67.390625 29.109375 67.390625 21.09375 
Q 67.390625 10.25 60.546875 5.125 
Q 53.71875 0 39.203125 0 
z
" id="DejaVuSerif-66"/>
       <path d="M 39.796875 16.3125 
L 39.796875 27.296875 
L 28.21875 27.296875 
Q 21.53125 27.296875 18.25 24.40625 
Q 14.984375 21.53125 14.984375 15.578125 
Q 14.984375 10.15625 18.296875 6.984375 
Q 21.625 3.8125 27.296875 3.8125 
Q 32.90625 3.8125 36.34375 7.28125 
Q 39.796875 10.75 39.796875 16.3125 
z
M 48.78125 32.421875 
L 48.78125 5.171875 
L 56.78125 5.171875 
L 56.78125 0 
L 39.796875 0 
L 39.796875 5.609375 
Q 36.8125 2 32.90625 0.28125 
Q 29 -1.421875 23.78125 -1.421875 
Q 15.140625 -1.421875 10.0625 3.171875 
Q 4.984375 7.765625 4.984375 15.578125 
Q 4.984375 23.640625 10.796875 28.078125 
Q 16.609375 32.515625 27.203125 32.515625 
L 39.796875 32.515625 
L 39.796875 36.078125 
Q 39.796875 42 36.203125 45.234375 
Q 32.625 48.484375 26.125 48.484375 
Q 20.75 48.484375 17.578125 46.046875 
Q 14.40625 43.609375 13.625 38.8125 
L 8.984375 38.8125 
L 8.984375 49.3125 
Q 13.671875 51.3125 18.09375 52.3125 
Q 22.515625 53.328125 26.703125 53.328125 
Q 37.5 53.328125 43.140625 47.96875 
Q 48.78125 42.625 48.78125 32.421875 
z
" id="DejaVuSerif-97"/>
       <path d="M 5.609375 2.875 
L 5.609375 14.984375 
L 10.796875 14.984375 
Q 10.984375 9.1875 14.421875 6.296875 
Q 17.875 3.421875 24.609375 3.421875 
Q 30.671875 3.421875 33.84375 5.6875 
Q 37.015625 7.953125 37.015625 12.3125 
Q 37.015625 15.71875 34.6875 17.8125 
Q 32.375 19.921875 24.90625 22.3125 
L 18.40625 24.515625 
Q 11.71875 26.65625 8.71875 29.875 
Q 5.71875 33.109375 5.71875 38.09375 
Q 5.71875 45.21875 10.9375 49.265625 
Q 16.15625 53.328125 25.390625 53.328125 
Q 29.5 53.328125 34.03125 52.25 
Q 38.578125 51.171875 43.40625 49.125 
L 43.40625 37.796875 
L 38.234375 37.796875 
Q 38.03125 42.828125 34.703125 45.65625 
Q 31.390625 48.484375 25.6875 48.484375 
Q 20.015625 48.484375 17.109375 46.484375 
Q 14.203125 44.484375 14.203125 40.484375 
Q 14.203125 37.203125 16.40625 35.21875 
Q 18.609375 33.25 25.203125 31.203125 
L 32.328125 29 
Q 39.703125 26.703125 42.9375 23.265625 
Q 46.1875 19.828125 46.1875 14.40625 
Q 46.1875 7.03125 40.546875 2.796875 
Q 34.90625 -1.421875 25 -1.421875 
Q 19.96875 -1.421875 15.1875 -0.34375 
Q 10.40625 0.734375 5.609375 2.875 
z
" id="DejaVuSerif-115"/>
       <path d="M 24.703125 5.171875 
L 33.796875 5.171875 
Q 48 5.171875 55.59375 13.28125 
Q 63.1875 21.390625 63.1875 36.53125 
Q 63.1875 51.65625 55.609375 59.65625 
Q 48.046875 67.671875 33.796875 67.671875 
L 24.703125 67.671875 
z
M 5.515625 0 
L 5.515625 5.171875 
L 14.796875 5.171875 
L 14.796875 67.671875 
L 5.515625 67.671875 
L 5.515625 72.90625 
L 34.515625 72.90625 
Q 53.375 72.90625 63.890625 63.28125 
Q 74.421875 53.65625 74.421875 36.53125 
Q 74.421875 19.34375 63.875 9.671875 
Q 53.328125 0 34.515625 0 
z
" id="DejaVuSerif-68"/>
       <path d="M 20.015625 26.421875 
L 46.78125 26.421875 
L 33.40625 61.078125 
z
M -0.59375 0 
L -0.59375 5.171875 
L 5.8125 5.171875 
L 31.78125 72.90625 
L 39.984375 72.90625 
L 66.015625 5.171875 
L 73.1875 5.171875 
L 73.1875 0 
L 46.6875 0 
L 46.6875 5.171875 
L 54.78125 5.171875 
L 48.6875 21.1875 
L 18.015625 21.1875 
L 11.921875 5.171875 
L 19.921875 5.171875 
L 19.921875 0 
z
" id="DejaVuSerif-65"/>
      </defs>
      <use xlink:href="#DejaVuSerif-66"/>
      <use x="73.486328" xlink:href="#DejaVuSerif-97"/>
      <use x="133.105469" xlink:href="#DejaVuSerif-115"/>
      <use x="184.423828" xlink:href="#DejaVuSerif-101"/>
      <use x="243.603516" xlink:href="#DejaVuSerif-32"/>
      <use x="275.390625" xlink:href="#DejaVuSerif-68"/>
      <use x="355.566406" xlink:href="#DejaVuSerif-65"/>
     </g>
    </g>
    <g id="line2d_48">
     <path d="M 1094.19625 263.45125 
L 1118.19625 263.45125 
" style="fill:none;stroke:#cc2529;stroke-linecap:square;"/>
    </g>
    <g id="line2d_49"/>
    <g id="text_26">
     <!-- High VG DA -->
     <g transform="translate(1127.79625 267.65125)scale(0.12 -0.12)">
      <defs>
       <path d="M 5.515625 0 
L 5.515625 5.171875 
L 14.796875 5.171875 
L 14.796875 67.671875 
L 5.515625 67.671875 
L 5.515625 72.90625 
L 33.984375 72.90625 
L 33.984375 67.671875 
L 24.703125 67.671875 
L 24.703125 42.484375 
L 62.5 42.484375 
L 62.5 67.671875 
L 53.21875 67.671875 
L 53.21875 72.90625 
L 81.6875 72.90625 
L 81.6875 67.671875 
L 72.40625 67.671875 
L 72.40625 5.171875 
L 81.6875 5.171875 
L 81.6875 0 
L 53.21875 0 
L 53.21875 5.171875 
L 62.5 5.171875 
L 62.5 36.53125 
L 24.703125 36.53125 
L 24.703125 5.171875 
L 33.984375 5.171875 
L 33.984375 0 
z
" id="DejaVuSerif-72"/>
       <path d="M 9.71875 68.015625 
Q 9.71875 70.265625 11.34375 71.921875 
Q 12.984375 73.578125 15.28125 73.578125 
Q 17.53125 73.578125 19.15625 71.921875 
Q 20.796875 70.265625 20.796875 68.015625 
Q 20.796875 65.71875 19.1875 64.109375 
Q 17.578125 62.5 15.28125 62.5 
Q 12.984375 62.5 11.34375 64.109375 
Q 9.71875 65.71875 9.71875 68.015625 
z
M 21.1875 5.171875 
L 29.6875 5.171875 
L 29.6875 0 
L 3.609375 0 
L 3.609375 5.171875 
L 12.203125 5.171875 
L 12.203125 46.6875 
L 3.609375 46.6875 
L 3.609375 51.90625 
L 21.1875 51.90625 
z
" id="DejaVuSerif-105"/>
       <path d="M 52.484375 46.6875 
L 52.484375 1.125 
Q 52.484375 -10.0625 46.328125 -16.140625 
Q 40.1875 -22.21875 28.8125 -22.21875 
Q 23.6875 -22.21875 19 -21.28125 
Q 14.3125 -20.359375 10.015625 -18.5 
L 10.015625 -7.625 
L 14.703125 -7.625 
Q 15.578125 -12.703125 18.84375 -15.046875 
Q 22.125 -17.390625 28.21875 -17.390625 
Q 36.140625 -17.390625 39.8125 -12.921875 
Q 43.5 -8.453125 43.5 1.125 
L 43.5 8.109375 
Q 40.875 3.21875 36.796875 0.890625 
Q 32.71875 -1.421875 26.703125 -1.421875 
Q 17.140625 -1.421875 11.0625 6.171875 
Q 4.984375 13.765625 4.984375 25.984375 
Q 4.984375 38.1875 11.03125 45.75 
Q 17.09375 53.328125 26.703125 53.328125 
Q 32.71875 53.328125 36.796875 51 
Q 40.875 48.6875 43.5 43.796875 
L 43.5 51.90625 
L 61.078125 51.90625 
L 61.078125 46.6875 
z
M 43.5 28.515625 
Q 43.5 37.84375 39.90625 42.765625 
Q 36.328125 47.703125 29.5 47.703125 
Q 22.5625 47.703125 19.015625 42.234375 
Q 15.484375 36.765625 15.484375 25.984375 
Q 15.484375 15.234375 19.015625 9.71875 
Q 22.5625 4.203125 29.5 4.203125 
Q 36.328125 4.203125 39.90625 9.109375 
Q 43.5 14.015625 43.5 23.390625 
z
" id="DejaVuSerif-103"/>
       <path d="M 4.109375 0 
L 4.109375 5.171875 
L 12.203125 5.171875 
L 12.203125 70.796875 
L 3.609375 70.796875 
L 3.609375 75.984375 
L 21.1875 75.984375 
L 21.1875 42.671875 
Q 23.6875 47.953125 27.65625 50.640625 
Q 31.640625 53.328125 36.921875 53.328125 
Q 45.515625 53.328125 49.5625 48.390625 
Q 53.609375 43.453125 53.609375 33.015625 
L 53.609375 5.171875 
L 61.625 5.171875 
L 61.625 0 
L 36.8125 0 
L 36.8125 5.171875 
L 44.578125 5.171875 
L 44.578125 30.171875 
Q 44.578125 39.703125 42.25 43.1875 
Q 39.9375 46.6875 33.984375 46.6875 
Q 27.734375 46.6875 24.453125 42.140625 
Q 21.1875 37.59375 21.1875 28.90625 
L 21.1875 5.171875 
L 29 5.171875 
L 29 0 
z
" id="DejaVuSerif-104"/>
       <path d="M 17.484375 67.671875 
L 39.015625 11.71875 
L 60.5 67.671875 
L 52.296875 67.671875 
L 52.296875 72.90625 
L 73.6875 72.90625 
L 73.6875 67.671875 
L 66.609375 67.671875 
L 40.578125 0 
L 32.171875 0 
L 6.296875 67.671875 
L -0.984375 67.671875 
L -0.984375 72.90625 
L 25.59375 72.90625 
L 25.59375 67.671875 
z
" id="DejaVuSerif-86"/>
       <path d="M 64.015625 51.125 
Q 62.3125 60.25 56.890625 64.625 
Q 51.46875 69 41.796875 69 
Q 29.203125 69 23 60.890625 
Q 16.796875 52.78125 16.796875 36.375 
Q 16.796875 20.3125 23.1875 12.0625 
Q 29.59375 3.8125 42 3.8125 
Q 47.515625 3.8125 52.53125 5.171875 
Q 57.5625 6.546875 62.109375 9.28125 
L 62.109375 28.078125 
L 48.390625 28.078125 
L 48.390625 33.296875 
L 72.015625 33.296875 
L 72.015625 6.109375 
Q 65.53125 2.34375 58.03125 0.453125 
Q 50.53125 -1.421875 42 -1.421875 
Q 25.484375 -1.421875 15.546875 8.90625 
Q 5.609375 19.234375 5.609375 36.375 
Q 5.609375 53.65625 15.5625 63.9375 
Q 25.53125 74.21875 42.390625 74.21875 
Q 48.640625 74.21875 55.296875 72.78125 
Q 61.96875 71.34375 69.484375 68.40625 
L 69.484375 51.125 
z
" id="DejaVuSerif-71"/>
      </defs>
      <use xlink:href="#DejaVuSerif-72"/>
      <use x="87.207031" xlink:href="#DejaVuSerif-105"/>
      <use x="119.189453" xlink:href="#DejaVuSerif-103"/>
      <use x="183.203125" xlink:href="#DejaVuSerif-104"/>
      <use x="247.607422" xlink:href="#DejaVuSerif-32"/>
      <use x="279.394531" xlink:href="#DejaVuSerif-86"/>
      <use x="351.611328" xlink:href="#DejaVuSerif-71"/>
      <use x="431.494141" xlink:href="#DejaVuSerif-32"/>
      <use x="463.28125" xlink:href="#DejaVuSerif-68"/>
      <use x="543.457031" xlink:href="#DejaVuSerif-65"/>
     </g>
    </g>
   </g>
  </g>
  <g id="axes_4">
   <g id="matplotlib.axis_7">
    <g id="xtick_13">
     <g id="text_27">
      <!-- 0.0 -->
      <g style="opacity:0;" transform="translate(69.454375 297.235625)scale(0.12 -0.12)">
       <defs>
        <path d="M 9.421875 5.078125 
Q 9.421875 7.8125 11.28125 9.71875 
Q 13.140625 11.625 15.921875 11.625 
Q 18.609375 11.625 20.5 9.71875 
Q 22.40625 7.8125 22.40625 5.078125 
Q 22.40625 2.390625 20.5 0.484375 
Q 18.609375 -1.421875 15.921875 -1.421875 
Q 13.140625 -1.421875 11.28125 0.453125 
Q 9.421875 2.34375 9.421875 5.078125 
z
" id="DejaVuSerif-46"/>
       </defs>
       <use xlink:href="#DejaVuSerif-48"/>
       <use x="63.623047" xlink:href="#DejaVuSerif-46"/>
       <use x="95.410156" xlink:href="#DejaVuSerif-48"/>
      </g>
     </g>
    </g>
    <g id="xtick_14">
     <g id="text_28">
      <!-- 0.2 -->
      <g style="opacity:0;" transform="translate(270.334375 297.235625)scale(0.12 -0.12)">
       <use xlink:href="#DejaVuSerif-48"/>
       <use x="63.623047" xlink:href="#DejaVuSerif-46"/>
       <use x="95.410156" xlink:href="#DejaVuSerif-50"/>
      </g>
     </g>
    </g>
    <g id="xtick_15">
     <g id="text_29">
      <!-- 0.4 -->
      <g style="opacity:0;" transform="translate(471.214375 297.235625)scale(0.12 -0.12)">
       <use xlink:href="#DejaVuSerif-48"/>
       <use x="63.623047" xlink:href="#DejaVuSerif-46"/>
       <use x="95.410156" xlink:href="#DejaVuSerif-52"/>
      </g>
     </g>
    </g>
    <g id="xtick_16">
     <g id="text_30">
      <!-- 0.6 -->
      <g style="opacity:0;" transform="translate(672.094375 297.235625)scale(0.12 -0.12)">
       <defs>
        <path d="M 32.71875 3.421875 
Q 39.59375 3.421875 43.296875 8.46875 
Q 47.015625 13.53125 47.015625 23 
Q 47.015625 32.46875 43.296875 37.515625 
Q 39.59375 42.578125 32.71875 42.578125 
Q 25.734375 42.578125 22.0625 37.6875 
Q 18.40625 32.8125 18.40625 23.578125 
Q 18.40625 13.875 22.109375 8.640625 
Q 25.828125 3.421875 32.71875 3.421875 
z
M 16.796875 40.140625 
Q 20.125 43.796875 24.3125 45.59375 
Q 28.515625 47.40625 33.796875 47.40625 
Q 44.671875 47.40625 51 40.859375 
Q 57.328125 34.328125 57.328125 23 
Q 57.328125 11.921875 50.515625 5.25 
Q 43.703125 -1.421875 32.328125 -1.421875 
Q 19.96875 -1.421875 13.328125 7.78125 
Q 6.6875 17 6.6875 34.078125 
Q 6.6875 53.21875 14.546875 63.71875 
Q 22.40625 74.21875 36.71875 74.21875 
Q 40.578125 74.21875 44.828125 73.484375 
Q 49.078125 72.75 53.515625 71.296875 
L 53.515625 59.28125 
L 48 59.28125 
Q 47.40625 64.203125 44.234375 66.796875 
Q 41.0625 69.390625 35.6875 69.390625 
Q 26.21875 69.390625 21.578125 62.203125 
Q 16.9375 55.03125 16.796875 40.140625 
z
" id="DejaVuSerif-54"/>
       </defs>
       <use xlink:href="#DejaVuSerif-48"/>
       <use x="63.623047" xlink:href="#DejaVuSerif-46"/>
       <use x="95.410156" xlink:href="#DejaVuSerif-54"/>
      </g>
     </g>
    </g>
    <g id="xtick_17">
     <g id="text_31">
      <!-- 0.8 -->
      <g style="opacity:0;" transform="translate(872.974375 297.235625)scale(0.12 -0.12)">
       <defs>
        <path d="M 46.578125 19.921875 
Q 46.578125 27.734375 42.6875 32.046875 
Q 38.8125 36.375 31.78125 36.375 
Q 24.75 36.375 20.875 32.046875 
Q 17 27.734375 17 19.921875 
Q 17 12.0625 20.875 7.734375 
Q 24.75 3.421875 31.78125 3.421875 
Q 38.8125 3.421875 42.6875 7.734375 
Q 46.578125 12.0625 46.578125 19.921875 
z
M 44.578125 55.328125 
Q 44.578125 61.96875 41.203125 65.671875 
Q 37.84375 69.390625 31.78125 69.390625 
Q 25.78125 69.390625 22.390625 65.671875 
Q 19 61.96875 19 55.328125 
Q 19 48.640625 22.390625 44.921875 
Q 25.78125 41.21875 31.78125 41.21875 
Q 37.84375 41.21875 41.203125 44.921875 
Q 44.578125 48.640625 44.578125 55.328125 
z
M 39.3125 38.8125 
Q 47.609375 37.703125 52.25 32.6875 
Q 56.890625 27.6875 56.890625 19.921875 
Q 56.890625 9.671875 50.390625 4.125 
Q 43.890625 -1.421875 31.78125 -1.421875 
Q 19.734375 -1.421875 13.203125 4.125 
Q 6.6875 9.671875 6.6875 19.921875 
Q 6.6875 27.6875 11.328125 32.6875 
Q 15.96875 37.703125 24.3125 38.8125 
Q 16.9375 40.140625 13 44.40625 
Q 9.078125 48.6875 9.078125 55.328125 
Q 9.078125 64.109375 15.125 69.15625 
Q 21.1875 74.21875 31.78125 74.21875 
Q 42.390625 74.21875 48.4375 69.15625 
Q 54.5 64.109375 54.5 55.328125 
Q 54.5 48.6875 50.5625 44.40625 
Q 46.625 40.140625 39.3125 38.8125 
z
" id="DejaVuSerif-56"/>
       </defs>
       <use xlink:href="#DejaVuSerif-48"/>
       <use x="63.623047" xlink:href="#DejaVuSerif-46"/>
       <use x="95.410156" xlink:href="#DejaVuSerif-56"/>
      </g>
     </g>
    </g>
    <g id="xtick_18">
     <g id="text_32">
      <!-- 1.0 -->
      <g style="opacity:0;" transform="translate(1073.854375 297.235625)scale(0.12 -0.12)">
       <use xlink:href="#DejaVuSerif-49"/>
       <use x="63.623047" xlink:href="#DejaVuSerif-46"/>
       <use x="95.410156" xlink:href="#DejaVuSerif-48"/>
      </g>
     </g>
    </g>
    <g id="text_33">
     <!-- Date -->
     <g transform="translate(562.0625 331.88875)scale(0.16 -0.16)">
      <defs>
       <path d="M 10.796875 46.6875 
L 2.875 46.6875 
L 2.875 51.90625 
L 10.796875 51.90625 
L 10.796875 68.015625 
L 19.828125 68.015625 
L 19.828125 51.90625 
L 36.71875 51.90625 
L 36.71875 46.6875 
L 19.828125 46.6875 
L 19.828125 13.71875 
Q 19.828125 7.125 21.09375 5.265625 
Q 22.359375 3.421875 25.78125 3.421875 
Q 29.296875 3.421875 30.90625 5.484375 
Q 32.515625 7.5625 32.625 12.203125 
L 39.40625 12.203125 
Q 39.015625 5.125 35.546875 1.84375 
Q 32.078125 -1.421875 25 -1.421875 
Q 17.234375 -1.421875 14.015625 2.015625 
Q 10.796875 5.46875 10.796875 13.71875 
z
" id="DejaVuSerif-116"/>
      </defs>
      <use xlink:href="#DejaVuSerif-68"/>
      <use x="80.175781" xlink:href="#DejaVuSerif-97"/>
      <use x="139.794922" xlink:href="#DejaVuSerif-116"/>
      <use x="179.980469" xlink:href="#DejaVuSerif-101"/>
     </g>
    </g>
   </g>
   <g id="matplotlib.axis_8">
    <g id="ytick_28">
     <g id="text_34">
      <!-- 0.0 -->
      <g style="opacity:0;" transform="translate(52.9125 285.676562)scale(0.12 -0.12)">
       <use xlink:href="#DejaVuSerif-48"/>
       <use x="63.623047" xlink:href="#DejaVuSerif-46"/>
       <use x="95.410156" xlink:href="#DejaVuSerif-48"/>
      </g>
     </g>
    </g>
    <g id="ytick_29">
     <g id="text_35">
      <!-- 0.2 -->
      <g style="opacity:0;" transform="translate(52.9125 241.324562)scale(0.12 -0.12)">
       <use xlink:href="#DejaVuSerif-48"/>
       <use x="63.623047" xlink:href="#DejaVuSerif-46"/>
       <use x="95.410156" xlink:href="#DejaVuSerif-50"/>
      </g>
     </g>
    </g>
    <g id="ytick_30">
     <g id="text_36">
      <!-- 0.4 -->
      <g style="opacity:0;" transform="translate(52.9125 196.972562)scale(0.12 -0.12)">
       <use xlink:href="#DejaVuSerif-48"/>
       <use x="63.623047" xlink:href="#DejaVuSerif-46"/>
       <use x="95.410156" xlink:href="#DejaVuSerif-52"/>
      </g>
     </g>
    </g>
    <g id="ytick_31">
     <g id="text_37">
      <!-- 0.6 -->
      <g style="opacity:0;" transform="translate(52.9125 152.620562)scale(0.12 -0.12)">
       <use xlink:href="#DejaVuSerif-48"/>
       <use x="63.623047" xlink:href="#DejaVuSerif-46"/>
       <use x="95.410156" xlink:href="#DejaVuSerif-54"/>
      </g>
     </g>
    </g>
    <g id="ytick_32">
     <g id="text_38">
      <!-- 0.8 -->
      <g style="opacity:0;" transform="translate(52.9125 108.268562)scale(0.12 -0.12)">
       <use xlink:href="#DejaVuSerif-48"/>
       <use x="63.623047" xlink:href="#DejaVuSerif-46"/>
       <use x="95.410156" xlink:href="#DejaVuSerif-56"/>
      </g>
     </g>
    </g>
    <g id="ytick_33">
     <g id="text_39">
      <!-- 1.0 -->
      <g style="opacity:0;" transform="translate(52.9125 63.916562)scale(0.12 -0.12)">
       <use xlink:href="#DejaVuSerif-49"/>
       <use x="63.623047" xlink:href="#DejaVuSerif-46"/>
       <use x="95.410156" xlink:href="#DejaVuSerif-48"/>
      </g>
     </g>
    </g>
    <g id="text_40">
     <!-- region Price ($/MWh) -->
     <g transform="translate(19.3575 258.10375)rotate(-90)scale(0.16 -0.16)">
      <defs>
       <path d="M 47.796875 52 
L 47.796875 39.015625 
L 42.625 39.015625 
Q 42.390625 42.875 40.484375 44.78125 
Q 38.578125 46.6875 34.90625 46.6875 
Q 28.265625 46.6875 24.71875 42.09375 
Q 21.1875 37.5 21.1875 28.90625 
L 21.1875 5.171875 
L 31.59375 5.171875 
L 31.59375 0 
L 4.109375 0 
L 4.109375 5.171875 
L 12.203125 5.171875 
L 12.203125 46.78125 
L 3.609375 46.78125 
L 3.609375 51.90625 
L 21.1875 51.90625 
L 21.1875 42.671875 
Q 23.828125 48.09375 27.96875 50.703125 
Q 32.125 53.328125 38.09375 53.328125 
Q 40.28125 53.328125 42.703125 52.984375 
Q 45.125 52.640625 47.796875 52 
z
" id="DejaVuSerif-114"/>
       <path d="M 30.078125 3.421875 
Q 37.3125 3.421875 40.984375 9.125 
Q 44.671875 14.84375 44.671875 25.984375 
Q 44.671875 37.109375 40.984375 42.796875 
Q 37.3125 48.484375 30.078125 48.484375 
Q 22.859375 48.484375 19.171875 42.796875 
Q 15.484375 37.109375 15.484375 25.984375 
Q 15.484375 14.84375 19.1875 9.125 
Q 22.90625 3.421875 30.078125 3.421875 
z
M 30.078125 -1.421875 
Q 18.75 -1.421875 11.859375 6.078125 
Q 4.984375 13.578125 4.984375 25.984375 
Q 4.984375 38.375 11.84375 45.84375 
Q 18.703125 53.328125 30.078125 53.328125 
Q 41.453125 53.328125 48.3125 45.84375 
Q 55.171875 38.375 55.171875 25.984375 
Q 55.171875 13.578125 48.3125 6.078125 
Q 41.453125 -1.421875 30.078125 -1.421875 
z
" id="DejaVuSerif-111"/>
       <path d="M 4.109375 0 
L 4.109375 5.171875 
L 12.203125 5.171875 
L 12.203125 46.6875 
L 3.609375 46.6875 
L 3.609375 51.90625 
L 21.1875 51.90625 
L 21.1875 42.671875 
Q 23.6875 47.953125 27.65625 50.640625 
Q 31.640625 53.328125 36.921875 53.328125 
Q 45.515625 53.328125 49.5625 48.390625 
Q 53.609375 43.453125 53.609375 33.015625 
L 53.609375 5.171875 
L 61.625 5.171875 
L 61.625 0 
L 36.8125 0 
L 36.8125 5.171875 
L 44.578125 5.171875 
L 44.578125 30.171875 
Q 44.578125 39.703125 42.234375 43.234375 
Q 39.890625 46.78125 33.984375 46.78125 
Q 27.734375 46.78125 24.453125 42.203125 
Q 21.1875 37.640625 21.1875 28.90625 
L 21.1875 5.171875 
L 29 5.171875 
L 29 0 
z
" id="DejaVuSerif-110"/>
       <path d="M 24.703125 37.109375 
L 37.59375 37.109375 
Q 44.875 37.109375 48.671875 41.03125 
Q 52.484375 44.96875 52.484375 52.390625 
Q 52.484375 59.859375 48.671875 63.765625 
Q 44.875 67.671875 37.59375 67.671875 
L 24.703125 67.671875 
z
M 5.515625 0 
L 5.515625 5.171875 
L 14.796875 5.171875 
L 14.796875 67.671875 
L 5.515625 67.671875 
L 5.515625 72.90625 
L 39.984375 72.90625 
Q 50.921875 72.90625 57.3125 67.359375 
Q 63.71875 61.8125 63.71875 52.390625 
Q 63.71875 43.015625 57.3125 37.453125 
Q 50.921875 31.890625 39.984375 31.890625 
L 24.703125 31.890625 
L 24.703125 5.171875 
L 35.984375 5.171875 
L 35.984375 0 
z
" id="DejaVuSerif-80"/>
       <path d="M 51.421875 15.578125 
Q 49.515625 7.28125 44.09375 2.921875 
Q 38.671875 -1.421875 30.078125 -1.421875 
Q 18.75 -1.421875 11.859375 6.078125 
Q 4.984375 13.578125 4.984375 25.984375 
Q 4.984375 38.421875 11.859375 45.875 
Q 18.75 53.328125 30.078125 53.328125 
Q 35.015625 53.328125 39.890625 52.171875 
Q 44.78125 51.03125 49.703125 48.6875 
L 49.703125 35.40625 
L 44.484375 35.40625 
Q 43.453125 42.234375 40.015625 45.359375 
Q 36.578125 48.484375 30.171875 48.484375 
Q 22.90625 48.484375 19.1875 42.84375 
Q 15.484375 37.203125 15.484375 25.984375 
Q 15.484375 14.75 19.171875 9.078125 
Q 22.859375 3.421875 30.171875 3.421875 
Q 35.984375 3.421875 39.453125 6.4375 
Q 42.921875 9.46875 44.1875 15.578125 
z
" id="DejaVuSerif-99"/>
       <path d="M 31.890625 -15.578125 
Q 20.015625 -10.25 13.953125 1.296875 
Q 7.90625 12.84375 7.90625 30.171875 
Q 7.90625 47.5625 13.953125 59.109375 
Q 20.015625 70.65625 31.890625 75.984375 
L 31.890625 71.1875 
Q 24.359375 66.015625 21.09375 56.609375 
Q 17.828125 47.21875 17.828125 30.171875 
Q 17.828125 13.1875 21.09375 3.78125 
Q 24.359375 -5.609375 31.890625 -10.796875 
z
" id="DejaVuSerif-40"/>
       <path d="M 33.6875 3.328125 
Q 39.203125 3.8125 42.109375 6.5 
Q 45.015625 9.1875 45.015625 13.8125 
Q 45.015625 18.015625 42.140625 20.9375 
Q 39.265625 23.875 33.6875 25.390625 
z
M 28.8125 57.953125 
Q 23.78125 57.625 21 55.046875 
Q 18.21875 52.484375 18.21875 48.1875 
Q 18.21875 44.28125 20.78125 41.6875 
Q 23.34375 39.109375 28.8125 37.5 
z
M 8.59375 3.515625 
L 8.59375 17 
L 13.875 17 
Q 14.0625 10.296875 17.765625 6.875 
Q 21.484375 3.46875 28.8125 3.328125 
L 28.8125 27 
Q 17.578125 30.125 13.03125 34.203125 
Q 8.5 38.28125 8.5 45.015625 
Q 8.5 52.828125 13.859375 57.5625 
Q 19.234375 62.3125 28.8125 62.890625 
L 28.8125 75.984375 
L 33.6875 75.984375 
L 33.6875 62.890625 
Q 38.625 62.5 43.1875 61.296875 
Q 47.75 60.109375 52.09375 58.109375 
L 52.09375 45.3125 
L 46.78125 45.3125 
Q 46.1875 50.984375 42.8125 54.25 
Q 39.453125 57.515625 33.6875 57.953125 
L 33.6875 35.890625 
Q 45.703125 32.625 50.515625 28.390625 
Q 55.328125 24.171875 55.328125 17.09375 
Q 55.328125 8.984375 49.65625 4.09375 
Q 44 -0.78125 33.6875 -1.515625 
L 33.6875 -14.703125 
L 28.8125 -14.703125 
L 28.8125 -1.515625 
Q 24.125 -1.421875 19.09375 -0.171875 
Q 14.0625 1.078125 8.59375 3.515625 
z
" id="DejaVuSerif-36"/>
       <path d="M 25.875 72.90625 
L 33.6875 72.90625 
L 7.8125 -9.28125 
L 0 -9.28125 
z
" id="DejaVuSerif-47"/>
       <path d="M 5.515625 0 
L 5.515625 5.171875 
L 14.796875 5.171875 
L 14.796875 67.671875 
L 4.984375 67.671875 
L 4.984375 72.90625 
L 26.21875 72.90625 
L 51.8125 21 
L 77.390625 72.90625 
L 97.3125 72.90625 
L 97.3125 67.671875 
L 87.59375 67.671875 
L 87.59375 5.171875 
L 96.921875 5.171875 
L 96.921875 0 
L 68.40625 0 
L 68.40625 5.171875 
L 77.6875 5.171875 
L 77.6875 61.53125 
L 52.6875 10.6875 
L 45.796875 10.6875 
L 20.796875 61.53125 
L 20.796875 5.171875 
L 30.078125 5.171875 
L 30.078125 0 
z
" id="DejaVuSerif-77"/>
       <path d="M 76.21875 0 
L 68.21875 0 
L 51.515625 59.28125 
L 34.8125 0 
L 26.8125 0 
L 7.71875 67.671875 
L 0.484375 67.671875 
L 0.484375 72.90625 
L 27.09375 72.90625 
L 27.09375 67.671875 
L 18.015625 67.671875 
L 33.203125 13.8125 
L 49.8125 72.90625 
L 57.71875 72.90625 
L 74.609375 13.1875 
L 89.890625 67.671875 
L 81.5 67.671875 
L 81.5 72.90625 
L 102.484375 72.90625 
L 102.484375 67.671875 
L 95.3125 67.671875 
z
" id="DejaVuSerif-87"/>
       <path d="M 7.078125 -15.578125 
L 7.078125 -10.796875 
Q 14.59375 -5.609375 17.890625 3.78125 
Q 21.1875 13.1875 21.1875 30.171875 
Q 21.1875 47.21875 17.890625 56.609375 
Q 14.59375 66.015625 7.078125 71.1875 
L 7.078125 75.984375 
Q 19 70.65625 25.046875 59.109375 
Q 31.109375 47.5625 31.109375 30.171875 
Q 31.109375 12.84375 25.046875 1.296875 
Q 19 -10.25 7.078125 -15.578125 
z
" id="DejaVuSerif-41"/>
      </defs>
      <use xlink:href="#DejaVuSerif-114"/>
      <use x="47.802734" xlink:href="#DejaVuSerif-101"/>
      <use x="106.982422" xlink:href="#DejaVuSerif-103"/>
      <use x="170.996094" xlink:href="#DejaVuSerif-105"/>
      <use x="202.978516" xlink:href="#DejaVuSerif-111"/>
      <use x="263.183594" xlink:href="#DejaVuSerif-110"/>
      <use x="327.587891" xlink:href="#DejaVuSerif-32"/>
      <use x="359.375" xlink:href="#DejaVuSerif-80"/>
      <use x="426.660156" xlink:href="#DejaVuSerif-114"/>
      <use x="474.462891" xlink:href="#DejaVuSerif-105"/>
      <use x="506.445312" xlink:href="#DejaVuSerif-99"/>
      <use x="562.451172" xlink:href="#DejaVuSerif-101"/>
      <use x="621.630859" xlink:href="#DejaVuSerif-32"/>
      <use x="653.417969" xlink:href="#DejaVuSerif-40"/>
      <use x="692.431641" xlink:href="#DejaVuSerif-36"/>
      <use x="756.054688" xlink:href="#DejaVuSerif-47"/>
      <use x="789.746094" xlink:href="#DejaVuSerif-77"/>
      <use x="892.138672" xlink:href="#DejaVuSerif-87"/>
      <use x="994.921875" xlink:href="#DejaVuSerif-104"/>
      <use x="1059.326172" xlink:href="#DejaVuSerif-41"/>
     </g>
    </g>
   </g>
  </g>
 </g>
 <defs>
  <clipPath id="p7970d83b44">
   <rect height="221.76" width="313.875" x="78.99625" y="59.3575"/>
  </clipPath>
  <clipPath id="p1ed4e4aa51">
   <rect height="221.76" width="313.875" x="424.25875" y="59.3575"/>
  </clipPath>
  <clipPath id="pb13ab469e1">
   <rect height="221.76" width="313.875" x="769.52125" y="59.3575"/>
  </clipPath>
 </defs>
</svg>
