<?xml version="1.0" encoding="utf-8" standalone="no"?>
<!DOCTYPE svg PUBLIC "-//W3C//DTD SVG 1.1//EN"
  "http://www.w3.org/Graphics/SVG/1.1/DTD/svg11.dtd">
<!-- Created with matplotlib (https://matplotlib.org/) -->
<svg height="342.41625pt" version="1.1" viewBox="0 0 1213.676875 342.41625" width="1213.676875pt" xmlns="http://www.w3.org/2000/svg" xmlns:xlink="http://www.w3.org/1999/xlink">
 <metadata>
  <rdf:RDF xmlns:cc="http://creativecommons.org/ns#" xmlns:dc="http://purl.org/dc/elements/1.1/" xmlns:rdf="http://www.w3.org/1999/02/22-rdf-syntax-ns#">
   <cc:Work>
    <dc:type rdf:resource="http://purl.org/dc/dcmitype/StillImage"/>
    <dc:date>2021-12-13T10:30:50.769718</dc:date>
    <dc:format>image/svg+xml</dc:format>
    <dc:creator>
     <cc:Agent>
      <dc:title>Matplotlib v3.3.4, https://matplotlib.org/</dc:title>
     </cc:Agent>
    </dc:creator>
   </cc:Work>
  </rdf:RDF>
 </metadata>
 <defs>
  <style type="text/css">*{stroke-linecap:butt;stroke-linejoin:round;}</style>
 </defs>
 <g id="figure_1">
  <g id="patch_1">
   <path d="M 0 342.41625 
L 1213.676875 342.41625 
L 1213.676875 0 
L 0 0 
z
" style="fill:#ffffff;"/>
  </g>
  <g id="axes_1">
   <g id="patch_2">
    <path d="M 78.99625 281.1175 
L 392.87125 281.1175 
L 392.87125 59.3575 
L 78.99625 59.3575 
z
" style="fill:#ffffff;"/>
   </g>
   <g id="matplotlib.axis_1">
    <g id="xtick_1">
     <g id="line2d_1">
      <defs>
       <path d="M 0 0 
L 0 5 
" id="m8435e5c898" style="stroke:#000000;"/>
      </defs>
      <g>
       <use style="stroke:#000000;" x="78.99625" xlink:href="#m8435e5c898" y="281.1175"/>
      </g>
     </g>
     <g id="text_1">
      <!-- 0 -->
      <g transform="translate(75.17875 298.735625)scale(0.12 -0.12)">
       <defs>
        <path d="M 31.78125 3.421875 
Q 39.265625 3.421875 42.96875 11.625 
Q 46.6875 19.828125 46.6875 36.375 
Q 46.6875 52.984375 42.96875 61.1875 
Q 39.265625 69.390625 31.78125 69.390625 
Q 24.3125 69.390625 20.59375 61.1875 
Q 16.890625 52.984375 16.890625 36.375 
Q 16.890625 19.828125 20.59375 11.625 
Q 24.3125 3.421875 31.78125 3.421875 
z
M 31.78125 -1.421875 
Q 19.921875 -1.421875 13.25 8.53125 
Q 6.59375 18.5 6.59375 36.375 
Q 6.59375 54.296875 13.25 64.25 
Q 19.921875 74.21875 31.78125 74.21875 
Q 43.703125 74.21875 50.34375 64.25 
Q 56.984375 54.296875 56.984375 36.375 
Q 56.984375 18.5 50.34375 8.53125 
Q 43.703125 -1.421875 31.78125 -1.421875 
z
" id="DejaVuSerif-48"/>
       </defs>
       <use xlink:href="#DejaVuSerif-48"/>
      </g>
     </g>
    </g>
    <g id="xtick_2">
     <g id="line2d_2">
      <g>
       <use style="stroke:#000000;" x="119.236635" xlink:href="#m8435e5c898" y="281.1175"/>
      </g>
     </g>
     <g id="text_2">
      <!-- 200 -->
      <g transform="translate(107.784135 298.735625)scale(0.12 -0.12)">
       <defs>
        <path d="M 12.796875 55.515625 
L 7.328125 55.515625 
L 7.328125 68.5 
Q 12.546875 71.296875 17.84375 72.75 
Q 23.140625 74.21875 28.21875 74.21875 
Q 39.59375 74.21875 46.1875 68.703125 
Q 52.78125 63.1875 52.78125 53.71875 
Q 52.78125 43.015625 37.84375 28.125 
Q 36.671875 27 36.078125 26.421875 
L 17.671875 8.015625 
L 48.09375 8.015625 
L 48.09375 17 
L 53.8125 17 
L 53.8125 0 
L 6.78125 0 
L 6.78125 5.328125 
L 28.90625 27.390625 
Q 36.234375 34.71875 39.359375 40.84375 
Q 42.484375 46.96875 42.484375 53.71875 
Q 42.484375 61.078125 38.640625 65.234375 
Q 34.8125 69.390625 28.078125 69.390625 
Q 21.09375 69.390625 17.28125 65.921875 
Q 13.484375 62.453125 12.796875 55.515625 
z
" id="DejaVuSerif-50"/>
       </defs>
       <use xlink:href="#DejaVuSerif-50"/>
       <use x="63.623047" xlink:href="#DejaVuSerif-48"/>
       <use x="127.246094" xlink:href="#DejaVuSerif-48"/>
      </g>
     </g>
    </g>
    <g id="xtick_3">
     <g id="line2d_3">
      <g>
       <use style="stroke:#000000;" x="159.477019" xlink:href="#m8435e5c898" y="281.1175"/>
      </g>
     </g>
     <g id="text_3">
      <!-- 400 -->
      <g transform="translate(148.024519 298.735625)scale(0.12 -0.12)">
       <defs>
        <path d="M 34.90625 24.703125 
L 34.90625 63.484375 
L 10.015625 24.703125 
z
M 56.390625 0 
L 23.1875 0 
L 23.1875 5.171875 
L 34.90625 5.171875 
L 34.90625 19.484375 
L 3.078125 19.484375 
L 3.078125 24.8125 
L 35.015625 74.21875 
L 44.671875 74.21875 
L 44.671875 24.703125 
L 58.59375 24.703125 
L 58.59375 19.484375 
L 44.671875 19.484375 
L 44.671875 5.171875 
L 56.390625 5.171875 
z
" id="DejaVuSerif-52"/>
       </defs>
       <use xlink:href="#DejaVuSerif-52"/>
       <use x="63.623047" xlink:href="#DejaVuSerif-48"/>
       <use x="127.246094" xlink:href="#DejaVuSerif-48"/>
      </g>
     </g>
    </g>
    <g id="xtick_4">
     <g id="line2d_4">
      <g>
       <use style="stroke:#000000;" x="199.717404" xlink:href="#m8435e5c898" y="281.1175"/>
      </g>
     </g>
     <g id="text_4">
      <!-- 600 -->
      <g transform="translate(188.264904 298.735625)scale(0.12 -0.12)">
       <defs>
        <path d="M 32.71875 3.421875 
Q 39.59375 3.421875 43.296875 8.46875 
Q 47.015625 13.53125 47.015625 23 
Q 47.015625 32.46875 43.296875 37.515625 
Q 39.59375 42.578125 32.71875 42.578125 
Q 25.734375 42.578125 22.0625 37.6875 
Q 18.40625 32.8125 18.40625 23.578125 
Q 18.40625 13.875 22.109375 8.640625 
Q 25.828125 3.421875 32.71875 3.421875 
z
M 16.796875 40.140625 
Q 20.125 43.796875 24.3125 45.59375 
Q 28.515625 47.40625 33.796875 47.40625 
Q 44.671875 47.40625 51 40.859375 
Q 57.328125 34.328125 57.328125 23 
Q 57.328125 11.921875 50.515625 5.25 
Q 43.703125 -1.421875 32.328125 -1.421875 
Q 19.96875 -1.421875 13.328125 7.78125 
Q 6.6875 17 6.6875 34.078125 
Q 6.6875 53.21875 14.546875 63.71875 
Q 22.40625 74.21875 36.71875 74.21875 
Q 40.578125 74.21875 44.828125 73.484375 
Q 49.078125 72.75 53.515625 71.296875 
L 53.515625 59.28125 
L 48 59.28125 
Q 47.40625 64.203125 44.234375 66.796875 
Q 41.0625 69.390625 35.6875 69.390625 
Q 26.21875 69.390625 21.578125 62.203125 
Q 16.9375 55.03125 16.796875 40.140625 
z
" id="DejaVuSerif-54"/>
       </defs>
       <use xlink:href="#DejaVuSerif-54"/>
       <use x="63.623047" xlink:href="#DejaVuSerif-48"/>
       <use x="127.246094" xlink:href="#DejaVuSerif-48"/>
      </g>
     </g>
    </g>
    <g id="xtick_5">
     <g id="line2d_5">
      <g>
       <use style="stroke:#000000;" x="239.957788" xlink:href="#m8435e5c898" y="281.1175"/>
      </g>
     </g>
     <g id="text_5">
      <!-- 800 -->
      <g transform="translate(228.505288 298.735625)scale(0.12 -0.12)">
       <defs>
        <path d="M 46.578125 19.921875 
Q 46.578125 27.734375 42.6875 32.046875 
Q 38.8125 36.375 31.78125 36.375 
Q 24.75 36.375 20.875 32.046875 
Q 17 27.734375 17 19.921875 
Q 17 12.0625 20.875 7.734375 
Q 24.75 3.421875 31.78125 3.421875 
Q 38.8125 3.421875 42.6875 7.734375 
Q 46.578125 12.0625 46.578125 19.921875 
z
M 44.578125 55.328125 
Q 44.578125 61.96875 41.203125 65.671875 
Q 37.84375 69.390625 31.78125 69.390625 
Q 25.78125 69.390625 22.390625 65.671875 
Q 19 61.96875 19 55.328125 
Q 19 48.640625 22.390625 44.921875 
Q 25.78125 41.21875 31.78125 41.21875 
Q 37.84375 41.21875 41.203125 44.921875 
Q 44.578125 48.640625 44.578125 55.328125 
z
M 39.3125 38.8125 
Q 47.609375 37.703125 52.25 32.6875 
Q 56.890625 27.6875 56.890625 19.921875 
Q 56.890625 9.671875 50.390625 4.125 
Q 43.890625 -1.421875 31.78125 -1.421875 
Q 19.734375 -1.421875 13.203125 4.125 
Q 6.6875 9.671875 6.6875 19.921875 
Q 6.6875 27.6875 11.328125 32.6875 
Q 15.96875 37.703125 24.3125 38.8125 
Q 16.9375 40.140625 13 44.40625 
Q 9.078125 48.6875 9.078125 55.328125 
Q 9.078125 64.109375 15.125 69.15625 
Q 21.1875 74.21875 31.78125 74.21875 
Q 42.390625 74.21875 48.4375 69.15625 
Q 54.5 64.109375 54.5 55.328125 
Q 54.5 48.6875 50.5625 44.40625 
Q 46.625 40.140625 39.3125 38.8125 
z
" id="DejaVuSerif-56"/>
       </defs>
       <use xlink:href="#DejaVuSerif-56"/>
       <use x="63.623047" xlink:href="#DejaVuSerif-48"/>
       <use x="127.246094" xlink:href="#DejaVuSerif-48"/>
      </g>
     </g>
    </g>
    <g id="xtick_6">
     <g id="line2d_6">
      <g>
       <use style="stroke:#000000;" x="280.198173" xlink:href="#m8435e5c898" y="281.1175"/>
      </g>
     </g>
     <g id="text_6">
      <!-- 1000 -->
      <g transform="translate(264.928173 298.735625)scale(0.12 -0.12)">
       <defs>
        <path d="M 14.203125 0 
L 14.203125 5.171875 
L 26.90625 5.171875 
L 26.90625 65.828125 
L 12.203125 56.296875 
L 12.203125 62.703125 
L 29.984375 74.21875 
L 36.71875 74.21875 
L 36.71875 5.171875 
L 49.421875 5.171875 
L 49.421875 0 
z
" id="DejaVuSerif-49"/>
       </defs>
       <use xlink:href="#DejaVuSerif-49"/>
       <use x="63.623047" xlink:href="#DejaVuSerif-48"/>
       <use x="127.246094" xlink:href="#DejaVuSerif-48"/>
       <use x="190.869141" xlink:href="#DejaVuSerif-48"/>
      </g>
     </g>
    </g>
    <g id="xtick_7">
     <g id="line2d_7">
      <g>
       <use style="stroke:#000000;" x="320.438558" xlink:href="#m8435e5c898" y="281.1175"/>
      </g>
     </g>
     <g id="text_7">
      <!-- 1200 -->
      <g transform="translate(305.168558 298.735625)scale(0.12 -0.12)">
       <use xlink:href="#DejaVuSerif-49"/>
       <use x="63.623047" xlink:href="#DejaVuSerif-50"/>
       <use x="127.246094" xlink:href="#DejaVuSerif-48"/>
       <use x="190.869141" xlink:href="#DejaVuSerif-48"/>
      </g>
     </g>
    </g>
    <g id="xtick_8">
     <g id="line2d_8">
      <g>
       <use style="stroke:#000000;" x="360.678942" xlink:href="#m8435e5c898" y="281.1175"/>
      </g>
     </g>
     <g id="text_8">
      <!-- 1400 -->
      <g transform="translate(345.408942 298.735625)scale(0.12 -0.12)">
       <use xlink:href="#DejaVuSerif-49"/>
       <use x="63.623047" xlink:href="#DejaVuSerif-52"/>
       <use x="127.246094" xlink:href="#DejaVuSerif-48"/>
       <use x="190.869141" xlink:href="#DejaVuSerif-48"/>
      </g>
     </g>
    </g>
   </g>
   <g id="matplotlib.axis_2">
    <g id="ytick_1">
     <g id="line2d_9">
      <defs>
       <path d="M 0 0 
L -5 0 
" id="m4d01241aa6" style="stroke:#000000;"/>
      </defs>
      <g>
       <use style="stroke:#000000;" x="78.99625" xlink:href="#m4d01241aa6" y="281.1175"/>
      </g>
     </g>
     <g id="text_9">
      <!-- 0 -->
      <g transform="translate(62.86125 285.676562)scale(0.12 -0.12)">
       <use xlink:href="#DejaVuSerif-48"/>
      </g>
     </g>
    </g>
    <g id="ytick_2">
     <g id="line2d_10">
      <g>
       <use style="stroke:#000000;" x="78.99625" xlink:href="#m4d01241aa6" y="251.5495"/>
      </g>
     </g>
     <g id="text_10">
      <!-- 20 -->
      <g transform="translate(55.22625 256.108562)scale(0.12 -0.12)">
       <use xlink:href="#DejaVuSerif-50"/>
       <use x="63.623047" xlink:href="#DejaVuSerif-48"/>
      </g>
     </g>
    </g>
    <g id="ytick_3">
     <g id="line2d_11">
      <g>
       <use style="stroke:#000000;" x="78.99625" xlink:href="#m4d01241aa6" y="221.9815"/>
      </g>
     </g>
     <g id="text_11">
      <!-- 40 -->
      <g transform="translate(55.22625 226.540562)scale(0.12 -0.12)">
       <use xlink:href="#DejaVuSerif-52"/>
       <use x="63.623047" xlink:href="#DejaVuSerif-48"/>
      </g>
     </g>
    </g>
    <g id="ytick_4">
     <g id="line2d_12">
      <g>
       <use style="stroke:#000000;" x="78.99625" xlink:href="#m4d01241aa6" y="192.4135"/>
      </g>
     </g>
     <g id="text_12">
      <!-- 60 -->
      <g transform="translate(55.22625 196.972562)scale(0.12 -0.12)">
       <use xlink:href="#DejaVuSerif-54"/>
       <use x="63.623047" xlink:href="#DejaVuSerif-48"/>
      </g>
     </g>
    </g>
    <g id="ytick_5">
     <g id="line2d_13">
      <g>
       <use style="stroke:#000000;" x="78.99625" xlink:href="#m4d01241aa6" y="162.8455"/>
      </g>
     </g>
     <g id="text_13">
      <!-- 80 -->
      <g transform="translate(55.22625 167.404562)scale(0.12 -0.12)">
       <use xlink:href="#DejaVuSerif-56"/>
       <use x="63.623047" xlink:href="#DejaVuSerif-48"/>
      </g>
     </g>
    </g>
    <g id="ytick_6">
     <g id="line2d_14">
      <g>
       <use style="stroke:#000000;" x="78.99625" xlink:href="#m4d01241aa6" y="133.2775"/>
      </g>
     </g>
     <g id="text_14">
      <!-- 100 -->
      <g transform="translate(47.59125 137.836562)scale(0.12 -0.12)">
       <use xlink:href="#DejaVuSerif-49"/>
       <use x="63.623047" xlink:href="#DejaVuSerif-48"/>
       <use x="127.246094" xlink:href="#DejaVuSerif-48"/>
      </g>
     </g>
    </g>
    <g id="ytick_7">
     <g id="line2d_15">
      <g>
       <use style="stroke:#000000;" x="78.99625" xlink:href="#m4d01241aa6" y="103.7095"/>
      </g>
     </g>
     <g id="text_15">
      <!-- 120 -->
      <g transform="translate(47.59125 108.268562)scale(0.12 -0.12)">
       <use xlink:href="#DejaVuSerif-49"/>
       <use x="63.623047" xlink:href="#DejaVuSerif-50"/>
       <use x="127.246094" xlink:href="#DejaVuSerif-48"/>
      </g>
     </g>
    </g>
    <g id="ytick_8">
     <g id="line2d_16">
      <g>
       <use style="stroke:#000000;" x="78.99625" xlink:href="#m4d01241aa6" y="74.1415"/>
      </g>
     </g>
     <g id="text_16">
      <!-- 140 -->
      <g transform="translate(47.59125 78.700562)scale(0.12 -0.12)">
       <use xlink:href="#DejaVuSerif-49"/>
       <use x="63.623047" xlink:href="#DejaVuSerif-52"/>
       <use x="127.246094" xlink:href="#DejaVuSerif-48"/>
      </g>
     </g>
    </g>
   </g>
   <g id="line2d_17">
    <path clip-path="url(#ped4030ac80)" d="M 80.598991 -1 
L 80.605865 195.366324 
L 80.807067 199.665738 
L 81.611875 199.665738 
L 81.813077 202.845716 
L 82.617885 202.956795 
L 82.819087 203.898159 
L 83.020288 203.898159 
L 83.422692 204.022857 
L 83.623894 204.735636 
L 84.831106 204.735636 
L 85.032308 204.97135 
L 86.440721 204.97135 
L 86.641923 205.386829 
L 87.044327 205.386829 
L 87.245529 205.66814 
L 87.446731 205.66814 
L 87.647933 206.038016 
L 88.653942 206.038016 
L 88.855144 206.302431 
L 89.861154 206.302431 
L 90.062356 206.605326 
L 90.46476 206.68921 
L 91.269567 206.68921 
L 91.470769 207.340403 
L 93.080385 207.340403 
L 93.281587 207.633507 
L 93.68399 207.633507 
L 93.885192 207.991591 
L 94.086394 208.642784 
L 94.69 208.642784 
L 94.891202 209.293972 
L 95.897212 209.293972 
L 96.098413 209.655919 
L 96.299615 209.655919 
L 96.500817 209.945165 
L 97.506827 209.945165 
L 97.708029 210.295669 
L 98.110433 210.299369 
L 98.311635 210.942819 
L 101.933269 211.037401 
L 102.134471 211.586269 
L 108.572933 211.586269 
L 108.975337 212.229724 
L 118.029423 212.324651 
L 118.230625 212.342309 
L 118.633029 212.873175 
L 128.894327 212.873175 
L 129.095529 213.141278 
L 129.497933 213.223899 
L 129.699135 213.223899 
L 129.900337 213.45879 
L 137.948413 213.516625 
L 138.552019 213.758323 
L 139.155625 213.796915 
L 139.759231 214.160075 
L 149.618125 214.160075 
L 149.819327 214.310157 
L 150.020529 214.649856 
L 150.624135 214.734653 
L 151.026538 214.80353 
L 160.684231 214.875159 
L 161.287837 214.996671 
L 161.489038 215.023398 
L 161.891442 215.372582 
L 162.092644 215.372582 
L 162.293846 215.505695 
L 162.495048 215.927495 
L 174.768365 215.927495 
L 174.969567 217.058916 
L 185.230865 217.058916 
L 185.432067 217.663701 
L 185.834471 217.97383 
L 186.035673 217.977214 
L 186.438077 218.190331 
L 196.498173 218.191081 
L 196.900577 218.48661 
L 197.101779 218.499333 
L 197.302981 218.740794 
L 198.107788 218.921912 
L 198.711394 219.321752 
L 207.966683 219.321752 
L 208.369087 219.719933 
L 208.972692 219.814036 
L 209.7775 219.95271 
L 209.978702 220.252807 
L 226.074856 220.252807 
L 226.276058 220.448085 
L 230.7025 220.453167 
L 233.921731 220.453167 
L 234.726538 220.806321 
L 252.63351 220.891097 
L 253.035913 220.990061 
L 253.438317 221.020515 
L 253.840721 221.185667 
L 255.047933 221.359836 
L 273.357308 221.426468 
L 274.162115 221.584582 
L 287.24024 221.584582 
L 287.441442 221.867224 
L 288.045048 221.913345 
L 309.976058 221.973864 
L 310.378462 222.360952 
L 322.852981 222.466859 
L 323.054183 222.716002 
L 331.705865 222.716002 
L 331.907067 222.967282 
L 332.510673 223.020374 
L 343.979183 223.020374 
L 344.180385 223.346622 
L 344.381587 223.380793 
L 344.582788 223.573883 
L 361.081346 223.573883 
L 361.282548 223.847417 
L 368.727019 223.847417 
L 368.928221 224.127398 
L 376.372692 224.127398 
L 376.573894 224.395749 
L 376.775096 224.395749 
L 376.976298 224.680906 
L 386.231587 224.680906 
L 386.432788 224.978838 
L 388.042404 224.997623 
L 388.243606 226.415251 
L 388.444808 229.76589 
L 388.64601 230.510453 
L 389.249615 230.510453 
L 389.450817 232.128073 
L 389.853221 232.128073 
L 390.054423 233.442405 
L 390.658029 233.442405 
L 390.859231 233.745688 
L 391.060433 234.62822 
L 392.066442 234.634601 
L 392.267644 234.853862 
L 392.468846 235.363306 
L 392.670048 236.980923 
L 392.670048 236.980923 
" style="fill:none;stroke:#396ab1;stroke-linecap:square;"/>
   </g>
   <g id="line2d_18">
    <path clip-path="url(#ped4030ac80)" d="M 79.596744 -1 
L 79.599856 86.094509 
L 80.00226 95.180964 
L 80.404663 122.679067 
L 80.605865 195.289743 
L 81.008269 199.588238 
L 81.209471 199.588238 
L 81.410673 199.981959 
L 81.813077 199.981959 
L 82.014279 201.682048 
L 82.416683 202.309194 
L 82.617885 202.735991 
L 82.819087 203.640269 
L 83.22149 203.640269 
L 83.623894 205.869667 
L 83.825096 205.869667 
L 84.026298 206.46165 
L 84.2275 206.68921 
L 84.831106 207.963483 
L 85.434712 207.991591 
L 85.635913 208.605754 
L 86.440721 208.642784 
L 86.641923 208.642784 
L 86.843125 208.940321 
L 87.245529 210.006389 
L 88.251538 210.299369 
L 88.653942 210.942819 
L 89.861154 210.942819 
L 90.263558 211.485815 
L 90.665962 211.586269 
L 92.275577 211.586269 
L 92.476779 212.098129 
L 92.879183 212.098129 
L 93.281587 212.229724 
L 94.69 212.229724 
L 94.891202 212.526505 
L 95.69601 212.628887 
L 96.702019 212.628887 
L 97.305625 212.873175 
L 99.317644 212.934201 
L 99.518846 213.017792 
L 99.720048 213.334673 
L 99.92125 213.35312 
L 100.122452 213.510872 
L 103.542885 213.644086 
L 103.945288 213.721643 
L 106.560913 213.817551 
L 106.762115 214.160075 
L 109.176538 214.160075 
L 109.37774 214.517657 
L 109.578942 214.517657 
L 109.780144 214.80353 
L 112.999375 214.80353 
L 113.200577 215.006219 
L 114.810192 215.006219 
L 115.011394 215.383094 
L 116.218606 215.496598 
L 116.62101 215.879998 
L 119.84024 215.927495 
L 120.041442 216.194888 
L 120.84625 216.212185 
L 121.248654 216.635497 
L 124.669087 216.635497 
L 125.07149 216.777486 
L 125.272692 216.803451 
L 125.473894 217.054348 
L 130.503942 217.058916 
L 133.320769 217.12393 
L 133.924375 217.173057 
L 135.332788 217.203911 
L 135.53399 217.383551 
L 136.338798 217.458118 
L 137.54601 217.754578 
L 138.753221 217.77439 
L 139.558029 218.190331 
L 144.185673 218.190331 
L 144.386875 218.336099 
L 146.398894 218.336099 
L 146.600096 218.534361 
L 147.807308 218.873033 
L 148.410913 218.913289 
L 149.618125 218.91762 
L 150.020529 219.101224 
L 150.422933 219.125063 
L 150.624135 219.321752 
L 155.855385 219.346278 
L 156.056587 219.499141 
L 158.068606 219.591355 
L 158.47101 219.760888 
L 159.477019 219.850502 
L 159.678221 220.052182 
L 162.092644 220.080656 
L 162.293846 220.252807 
L 169.335913 220.362735 
L 170.945529 220.453167 
L 175.371971 220.453167 
L 175.774375 220.662178 
L 176.780385 220.662178 
L 176.981587 220.806321 
L 184.62726 220.914614 
L 185.432067 220.949557 
L 186.035673 221.100604 
L 186.438077 221.191081 
L 187.84649 221.270549 
L 188.248894 221.359836 
L 197.302981 221.376067 
L 197.504183 221.522015 
L 201.125817 221.584582 
L 201.729423 221.750038 
L 205.149856 221.913345 
L 211.990721 221.99226 
L 212.594327 222.13822 
L 213.600337 222.149319 
L 213.801538 222.329974 
L 214.203942 222.335106 
L 214.606346 222.466859 
L 221.044808 222.472634 
L 221.24601 222.632028 
L 226.879663 222.716002 
L 227.282067 223.020374 
L 234.92774 223.031484 
L 235.128942 223.193528 
L 236.537356 223.231816 
L 237.342163 223.468873 
L 246.39625 223.573883 
L 246.597452 223.750697 
L 251.225096 223.847417 
L 251.6275 223.961603 
L 252.432308 224.117483 
L 260.077981 224.127398 
L 260.279183 224.307872 
L 260.882788 224.307872 
L 261.08399 224.607766 
L 270.540481 224.680906 
L 270.741683 224.870698 
L 275.570529 224.978838 
L 275.771731 225.214051 
L 277.582548 225.245779 
L 277.78375 225.416988 
L 278.588558 225.486964 
L 279.192163 225.955038 
L 279.795769 227.167501 
L 279.996971 227.169717 
L 280.399375 228.885033 
L 280.600577 229.005084 
L 280.801779 229.543688 
L 281.002981 229.611939 
L 281.204183 229.880803 
L 281.405385 230.510453 
L 282.612596 230.610647 
L 283.417404 231.001909 
L 284.02101 231.848353 
L 284.222212 232.128073 
L 285.630625 232.219334 
L 285.831827 232.676529 
L 286.033029 232.823527 
L 286.234231 233.127098 
L 286.636635 233.142483 
L 286.837837 233.442405 
L 287.441442 233.501508 
L 287.843846 233.745688 
L 288.849856 233.745688 
L 289.25226 233.859237 
L 289.453462 233.859237 
L 289.654663 234.853862 
L 290.459471 235.363306 
L 291.063077 235.363306 
L 291.264279 235.523297 
L 291.465481 236.735804 
L 292.270288 236.735804 
L 292.47149 236.980923 
L 293.678702 236.980923 
L 293.879904 238.598541 
L 294.684712 238.598541 
L 294.885913 239.84602 
L 295.087115 240.216158 
L 295.489519 240.216158 
L 295.891923 241.833776 
L 297.70274 241.833776 
L 298.105144 242.039093 
L 298.70875 243.451393 
L 298.909952 245.798801 
L 299.111154 245.798801 
L 299.312356 248.486173 
L 299.513558 248.486173 
L 299.71476 248.752753 
L 299.915962 249.829861 
L 300.318365 249.829861 
L 300.519567 258.800159 
L 300.720769 258.800159 
L 300.921971 269.269419 
L 301.123173 270.199624 
L 301.525577 270.204146 
L 301.726779 270.420239 
L 301.927981 276.099472 
L 302.129183 276.341155 
L 302.330385 281.1175 
L 392.670048 281.1175 
L 392.670048 281.1175 
" style="fill:none;stroke:#cc2529;stroke-linecap:square;"/>
   </g>
   <g id="patch_3">
    <path d="M 78.99625 281.1175 
L 78.99625 59.3575 
" style="fill:none;stroke:#000000;stroke-linecap:square;stroke-linejoin:miter;stroke-width:0.8;"/>
   </g>
   <g id="patch_4">
    <path d="M 78.99625 281.1175 
L 392.87125 281.1175 
" style="fill:none;stroke:#000000;stroke-linecap:square;stroke-linejoin:miter;stroke-width:0.8;"/>
   </g>
   <g id="text_17">
    <!-- 1 -->
    <g transform="translate(230.84375 19.3575)scale(0.16 -0.16)">
     <use xlink:href="#DejaVuSerif-49"/>
    </g>
   </g>
  </g>
  <g id="axes_2">
   <g id="patch_5">
    <path d="M 424.25875 281.1175 
L 738.13375 281.1175 
L 738.13375 59.3575 
L 424.25875 59.3575 
z
" style="fill:#ffffff;"/>
   </g>
   <g id="matplotlib.axis_3">
    <g id="xtick_9">
     <g id="line2d_19">
      <g>
       <use style="stroke:#000000;" x="424.25875" xlink:href="#m8435e5c898" y="281.1175"/>
      </g>
     </g>
     <g id="text_18">
      <!-- 0 -->
      <g transform="translate(420.44125 298.735625)scale(0.12 -0.12)">
       <use xlink:href="#DejaVuSerif-48"/>
      </g>
     </g>
    </g>
    <g id="xtick_10">
     <g id="line2d_20">
      <g>
       <use style="stroke:#000000;" x="464.499135" xlink:href="#m8435e5c898" y="281.1175"/>
      </g>
     </g>
     <g id="text_19">
      <!-- 200 -->
      <g transform="translate(453.046635 298.735625)scale(0.12 -0.12)">
       <use xlink:href="#DejaVuSerif-50"/>
       <use x="63.623047" xlink:href="#DejaVuSerif-48"/>
       <use x="127.246094" xlink:href="#DejaVuSerif-48"/>
      </g>
     </g>
    </g>
    <g id="xtick_11">
     <g id="line2d_21">
      <g>
       <use style="stroke:#000000;" x="504.739519" xlink:href="#m8435e5c898" y="281.1175"/>
      </g>
     </g>
     <g id="text_20">
      <!-- 400 -->
      <g transform="translate(493.287019 298.735625)scale(0.12 -0.12)">
       <use xlink:href="#DejaVuSerif-52"/>
       <use x="63.623047" xlink:href="#DejaVuSerif-48"/>
       <use x="127.246094" xlink:href="#DejaVuSerif-48"/>
      </g>
     </g>
    </g>
    <g id="xtick_12">
     <g id="line2d_22">
      <g>
       <use style="stroke:#000000;" x="544.979904" xlink:href="#m8435e5c898" y="281.1175"/>
      </g>
     </g>
     <g id="text_21">
      <!-- 600 -->
      <g transform="translate(533.527404 298.735625)scale(0.12 -0.12)">
       <use xlink:href="#DejaVuSerif-54"/>
       <use x="63.623047" xlink:href="#DejaVuSerif-48"/>
       <use x="127.246094" xlink:href="#DejaVuSerif-48"/>
      </g>
     </g>
    </g>
    <g id="xtick_13">
     <g id="line2d_23">
      <g>
       <use style="stroke:#000000;" x="585.220288" xlink:href="#m8435e5c898" y="281.1175"/>
      </g>
     </g>
     <g id="text_22">
      <!-- 800 -->
      <g transform="translate(573.767788 298.735625)scale(0.12 -0.12)">
       <use xlink:href="#DejaVuSerif-56"/>
       <use x="63.623047" xlink:href="#DejaVuSerif-48"/>
       <use x="127.246094" xlink:href="#DejaVuSerif-48"/>
      </g>
     </g>
    </g>
    <g id="xtick_14">
     <g id="line2d_24">
      <g>
       <use style="stroke:#000000;" x="625.460673" xlink:href="#m8435e5c898" y="281.1175"/>
      </g>
     </g>
     <g id="text_23">
      <!-- 1000 -->
      <g transform="translate(610.190673 298.735625)scale(0.12 -0.12)">
       <use xlink:href="#DejaVuSerif-49"/>
       <use x="63.623047" xlink:href="#DejaVuSerif-48"/>
       <use x="127.246094" xlink:href="#DejaVuSerif-48"/>
       <use x="190.869141" xlink:href="#DejaVuSerif-48"/>
      </g>
     </g>
    </g>
    <g id="xtick_15">
     <g id="line2d_25">
      <g>
       <use style="stroke:#000000;" x="665.701058" xlink:href="#m8435e5c898" y="281.1175"/>
      </g>
     </g>
     <g id="text_24">
      <!-- 1200 -->
      <g transform="translate(650.431058 298.735625)scale(0.12 -0.12)">
       <use xlink:href="#DejaVuSerif-49"/>
       <use x="63.623047" xlink:href="#DejaVuSerif-50"/>
       <use x="127.246094" xlink:href="#DejaVuSerif-48"/>
       <use x="190.869141" xlink:href="#DejaVuSerif-48"/>
      </g>
     </g>
    </g>
    <g id="xtick_16">
     <g id="line2d_26">
      <g>
       <use style="stroke:#000000;" x="705.941442" xlink:href="#m8435e5c898" y="281.1175"/>
      </g>
     </g>
     <g id="text_25">
      <!-- 1400 -->
      <g transform="translate(690.671442 298.735625)scale(0.12 -0.12)">
       <use xlink:href="#DejaVuSerif-49"/>
       <use x="63.623047" xlink:href="#DejaVuSerif-52"/>
       <use x="127.246094" xlink:href="#DejaVuSerif-48"/>
       <use x="190.869141" xlink:href="#DejaVuSerif-48"/>
      </g>
     </g>
    </g>
   </g>
   <g id="matplotlib.axis_4">
    <g id="ytick_9">
     <g id="line2d_27">
      <g>
       <use style="stroke:#000000;" x="424.25875" xlink:href="#m4d01241aa6" y="281.1175"/>
      </g>
     </g>
    </g>
    <g id="ytick_10">
     <g id="line2d_28">
      <g>
       <use style="stroke:#000000;" x="424.25875" xlink:href="#m4d01241aa6" y="251.5495"/>
      </g>
     </g>
    </g>
    <g id="ytick_11">
     <g id="line2d_29">
      <g>
       <use style="stroke:#000000;" x="424.25875" xlink:href="#m4d01241aa6" y="221.9815"/>
      </g>
     </g>
    </g>
    <g id="ytick_12">
     <g id="line2d_30">
      <g>
       <use style="stroke:#000000;" x="424.25875" xlink:href="#m4d01241aa6" y="192.4135"/>
      </g>
     </g>
    </g>
    <g id="ytick_13">
     <g id="line2d_31">
      <g>
       <use style="stroke:#000000;" x="424.25875" xlink:href="#m4d01241aa6" y="162.8455"/>
      </g>
     </g>
    </g>
    <g id="ytick_14">
     <g id="line2d_32">
      <g>
       <use style="stroke:#000000;" x="424.25875" xlink:href="#m4d01241aa6" y="133.2775"/>
      </g>
     </g>
    </g>
    <g id="ytick_15">
     <g id="line2d_33">
      <g>
       <use style="stroke:#000000;" x="424.25875" xlink:href="#m4d01241aa6" y="103.7095"/>
      </g>
     </g>
    </g>
    <g id="ytick_16">
     <g id="line2d_34">
      <g>
       <use style="stroke:#000000;" x="424.25875" xlink:href="#m4d01241aa6" y="74.1415"/>
      </g>
     </g>
    </g>
   </g>
   <g id="line2d_35">
    <path clip-path="url(#p94dd63d3ca)" d="M 425.865116 -1 
L 425.868365 90.12291 
L 426.069567 148.891814 
L 426.270769 148.891814 
L 426.471971 199.665738 
L 427.276779 199.665738 
L 427.477981 202.845716 
L 428.282788 202.956795 
L 428.48399 203.898159 
L 428.685192 203.898159 
L 429.087596 204.022857 
L 429.288798 204.735636 
L 430.49601 204.735636 
L 430.697212 204.97135 
L 432.105625 204.97135 
L 432.306827 205.386829 
L 432.709231 205.386829 
L 432.910433 205.66814 
L 433.111635 205.66814 
L 433.312837 206.038016 
L 434.318846 206.038016 
L 434.520048 206.270404 
L 435.324856 206.302431 
L 435.72726 206.302431 
L 435.928462 206.68921 
L 436.934471 206.68921 
L 437.135673 207.340403 
L 438.745288 207.340403 
L 438.94649 207.633507 
L 439.348894 207.633507 
L 439.550096 207.991591 
L 439.751298 208.642784 
L 440.354904 208.642784 
L 440.556106 209.293972 
L 441.562115 209.293972 
L 441.763317 209.655919 
L 441.964519 209.655919 
L 442.165721 209.945165 
L 443.171731 209.945165 
L 443.372933 210.295669 
L 443.775337 210.299369 
L 443.976538 210.942819 
L 448.000577 211.042404 
L 448.402981 211.586269 
L 455.445048 211.655682 
L 456.048654 211.802341 
L 456.249856 212.20412 
L 457.255865 212.229724 
L 465.303942 212.324651 
L 465.505144 212.673446 
L 466.913558 212.873175 
L 476.772452 212.927586 
L 477.174856 213.113029 
L 477.778462 213.223899 
L 478.180865 213.269574 
L 478.382067 213.516625 
L 486.430144 213.56944 
L 486.832548 213.758323 
L 487.03375 213.758323 
L 487.436154 214.160075 
L 497.898654 214.213465 
L 498.099856 214.61 
L 499.508269 214.80353 
L 508.96476 214.90673 
L 510.171971 215.187726 
L 510.976779 215.927495 
L 523.250096 215.927495 
L 523.451298 216.041659 
L 523.6525 216.307004 
L 523.853702 216.770645 
L 524.054904 216.808465 
L 524.457308 217.058916 
L 534.718606 217.058916 
L 534.919808 217.454639 
L 535.12101 217.478072 
L 535.523413 217.869345 
L 536.529423 218.190331 
L 546.187115 218.24609 
L 547.394327 218.740794 
L 547.997933 219.135023 
L 548.601538 219.321752 
L 558.259231 219.378041 
L 558.460433 220.03202 
L 559.064038 220.252807 
L 574.95899 220.252807 
L 575.361394 220.453167 
L 583.007067 220.537491 
L 584.013077 220.806321 
L 601.316442 220.806321 
L 601.718846 221.359836 
L 620.229423 221.359836 
L 620.631827 221.584582 
L 633.911154 221.584582 
L 634.313558 221.913345 
L 656.244567 221.913345 
L 656.445769 222.466859 
L 668.517885 222.466859 
L 668.719087 222.716002 
L 677.370769 222.716002 
L 677.974375 223.020374 
L 690.04649 223.12958 
L 690.247692 223.573883 
L 706.74625 223.573883 
L 706.947452 223.847417 
L 714.794327 223.950414 
L 714.995529 224.127398 
L 722.842404 224.158258 
L 723.043606 224.680906 
L 732.298894 224.680906 
L 732.500096 224.978838 
L 733.90851 224.978838 
L 734.109712 229.76589 
L 734.310913 230.510453 
L 734.914519 230.510453 
L 735.115721 232.128073 
L 735.518125 232.128073 
L 735.719327 233.442405 
L 736.322933 233.442405 
L 736.524135 233.745688 
L 736.725337 234.263222 
L 737.328942 234.263222 
L 737.731346 235.363306 
L 737.932548 236.980923 
L 737.932548 236.980923 
" style="fill:none;stroke:#396ab1;stroke-linecap:square;"/>
   </g>
   <g id="line2d_36">
    <path clip-path="url(#p94dd63d3ca)" d="M 424.858914 -1 
L 424.862356 95.487378 
L 425.26476 104.136218 
L 425.667163 122.679067 
L 425.868365 197.494423 
L 426.069567 199.588238 
L 426.270769 199.588238 
L 426.471971 199.981959 
L 426.874375 199.981959 
L 427.075577 201.597047 
L 427.276779 201.682048 
L 427.477981 202.309194 
L 427.679183 203.347667 
L 427.880385 203.640269 
L 428.282788 203.640269 
L 428.48399 205.386829 
L 428.685192 205.869667 
L 428.886394 205.869667 
L 429.288798 206.68921 
L 429.691202 207.963483 
L 430.49601 207.991591 
L 431.099615 208.642784 
L 431.703221 208.642784 
L 431.904423 209.655919 
L 432.105625 210.057292 
L 432.306827 210.057292 
L 432.508029 210.295669 
L 432.910433 210.299369 
L 433.514038 210.942819 
L 434.520048 210.942819 
L 434.72125 211.485815 
L 435.123654 211.586269 
L 436.733269 211.586269 
L 437.135673 212.098129 
L 437.739279 212.098129 
L 438.141683 212.229724 
L 439.550096 212.229724 
L 439.9525 212.627376 
L 440.153702 212.873175 
L 442.165721 212.873175 
L 442.366923 213.391097 
L 442.769327 213.516625 
L 445.586154 213.516625 
L 445.787356 214.034694 
L 446.18976 214.160075 
L 448.402981 214.160075 
L 448.805385 214.649793 
L 449.006587 214.798443 
L 452.427019 214.80353 
L 452.829423 215.879998 
L 458.463077 215.983993 
L 460.273894 216.767008 
L 460.676298 216.803451 
L 460.8775 216.967621 
L 471.138798 217.058916 
L 471.742404 217.725302 
L 472.144808 217.903921 
L 472.34601 217.903921 
L 472.547212 218.185582 
L 477.376058 218.190331 
L 479.186875 218.190331 
L 479.388077 218.504894 
L 480.79649 218.657091 
L 480.997692 219.321752 
L 486.832548 219.321752 
L 487.03375 219.581277 
L 487.234952 219.581277 
L 487.436154 219.741138 
L 490.856587 219.741138 
L 491.460192 220.239869 
L 493.27101 220.252807 
L 500.715481 220.305554 
L 501.520288 220.441949 
L 503.532308 220.453167 
L 508.361154 220.525016 
L 509.568365 220.806321 
L 518.018846 220.8753 
L 518.42125 221.188644 
L 518.622452 221.200961 
L 518.823654 221.359836 
L 529.88976 221.411619 
L 530.292163 221.584582 
L 533.511394 221.584582 
L 533.712596 221.89593 
L 535.523413 221.913345 
L 542.766683 221.941599 
L 542.967885 222.109565 
L 543.57149 222.131114 
L 543.973894 222.466859 
L 552.021971 222.466859 
L 552.223173 222.716002 
L 557.856827 222.8045 
L 558.259231 222.993264 
L 567.112115 223.020374 
L 567.313317 223.269483 
L 568.118125 223.331632 
L 568.319327 223.331632 
L 568.922933 223.573883 
L 577.775817 223.573883 
L 578.379423 223.820629 
L 583.208269 223.939834 
L 583.409471 224.077312 
L 592.463558 224.147007 
L 593.871971 224.392309 
L 594.877981 224.484759 
L 595.079183 224.506433 
L 595.280385 224.680906 
L 605.944087 224.786921 
L 606.145288 224.795121 
L 606.547692 224.922644 
L 607.553702 224.978838 
L 612.382548 225.050196 
L 612.784952 225.161354 
L 613.388558 225.306812 
L 613.790962 225.499778 
L 614.796971 225.594913 
L 615.400577 225.803907 
L 617.815 226.074159 
L 618.217404 226.196647 
L 618.82101 226.245396 
L 619.827019 226.340892 
L 620.028221 226.513651 
L 621.034231 226.53974 
L 621.235433 226.803157 
L 623.649856 227.225431 
L 624.05226 227.329443 
L 625.460673 227.38465 
L 626.265481 227.579708 
L 626.466683 227.841089 
L 626.869087 227.906526 
L 628.478702 227.966222 
L 628.679904 228.09969 
L 630.088317 228.157558 
L 631.094327 230.399279 
L 631.496731 230.510453 
L 632.301538 230.510453 
L 632.703942 230.888157 
L 632.905144 232.128073 
L 633.709952 232.128073 
L 633.911154 233.442405 
L 634.112356 233.442405 
L 634.313558 233.745688 
L 635.319567 233.745688 
L 635.520769 234.551394 
L 635.721971 234.574415 
L 635.923173 234.853862 
L 636.124375 235.363306 
L 636.929183 235.363306 
L 637.130385 235.794835 
L 637.331587 236.735804 
L 638.136394 236.735804 
L 638.337596 236.980923 
L 639.544808 236.980923 
L 639.74601 237.206292 
L 639.947212 238.598541 
L 640.752019 238.598541 
L 640.953221 240.216158 
L 641.355625 240.216158 
L 641.556827 241.833776 
L 643.568846 241.833776 
L 643.770048 243.451393 
L 643.97125 243.451393 
L 644.172452 247.499852 
L 644.373654 247.499852 
L 644.574856 250.057793 
L 644.776058 250.057793 
L 644.97726 250.311535 
L 645.178462 251.336764 
L 645.580865 251.336764 
L 645.782067 259.875027 
L 645.983269 259.875027 
L 646.184471 267.839954 
L 646.385673 270.199624 
L 646.788077 270.204146 
L 646.989279 270.93545 
L 647.190481 276.341155 
L 647.391683 276.341155 
L 647.592885 281.1175 
L 737.932548 281.1175 
L 737.932548 281.1175 
" style="fill:none;stroke:#cc2529;stroke-linecap:square;"/>
   </g>
   <g id="patch_6">
    <path d="M 424.25875 281.1175 
L 424.25875 59.3575 
" style="fill:none;stroke:#000000;stroke-linecap:square;stroke-linejoin:miter;stroke-width:0.8;"/>
   </g>
   <g id="patch_7">
    <path d="M 424.25875 281.1175 
L 738.13375 281.1175 
" style="fill:none;stroke:#000000;stroke-linecap:square;stroke-linejoin:miter;stroke-width:0.8;"/>
   </g>
   <g id="text_26">
    <!-- 2 -->
    <g transform="translate(576.10625 19.3575)scale(0.16 -0.16)">
     <use xlink:href="#DejaVuSerif-50"/>
    </g>
   </g>
  </g>
  <g id="axes_3">
   <g id="patch_8">
    <path d="M 769.52125 281.1175 
L 1083.39625 281.1175 
L 1083.39625 59.3575 
L 769.52125 59.3575 
z
" style="fill:#ffffff;"/>
   </g>
   <g id="matplotlib.axis_5">
    <g id="xtick_17">
     <g id="line2d_37">
      <g>
       <use style="stroke:#000000;" x="769.52125" xlink:href="#m8435e5c898" y="281.1175"/>
      </g>
     </g>
     <g id="text_27">
      <!-- 0 -->
      <g transform="translate(765.70375 298.735625)scale(0.12 -0.12)">
       <use xlink:href="#DejaVuSerif-48"/>
      </g>
     </g>
    </g>
    <g id="xtick_18">
     <g id="line2d_38">
      <g>
       <use style="stroke:#000000;" x="809.761635" xlink:href="#m8435e5c898" y="281.1175"/>
      </g>
     </g>
     <g id="text_28">
      <!-- 200 -->
      <g transform="translate(798.309135 298.735625)scale(0.12 -0.12)">
       <use xlink:href="#DejaVuSerif-50"/>
       <use x="63.623047" xlink:href="#DejaVuSerif-48"/>
       <use x="127.246094" xlink:href="#DejaVuSerif-48"/>
      </g>
     </g>
    </g>
    <g id="xtick_19">
     <g id="line2d_39">
      <g>
       <use style="stroke:#000000;" x="850.002019" xlink:href="#m8435e5c898" y="281.1175"/>
      </g>
     </g>
     <g id="text_29">
      <!-- 400 -->
      <g transform="translate(838.549519 298.735625)scale(0.12 -0.12)">
       <use xlink:href="#DejaVuSerif-52"/>
       <use x="63.623047" xlink:href="#DejaVuSerif-48"/>
       <use x="127.246094" xlink:href="#DejaVuSerif-48"/>
      </g>
     </g>
    </g>
    <g id="xtick_20">
     <g id="line2d_40">
      <g>
       <use style="stroke:#000000;" x="890.242404" xlink:href="#m8435e5c898" y="281.1175"/>
      </g>
     </g>
     <g id="text_30">
      <!-- 600 -->
      <g transform="translate(878.789904 298.735625)scale(0.12 -0.12)">
       <use xlink:href="#DejaVuSerif-54"/>
       <use x="63.623047" xlink:href="#DejaVuSerif-48"/>
       <use x="127.246094" xlink:href="#DejaVuSerif-48"/>
      </g>
     </g>
    </g>
    <g id="xtick_21">
     <g id="line2d_41">
      <g>
       <use style="stroke:#000000;" x="930.482788" xlink:href="#m8435e5c898" y="281.1175"/>
      </g>
     </g>
     <g id="text_31">
      <!-- 800 -->
      <g transform="translate(919.030288 298.735625)scale(0.12 -0.12)">
       <use xlink:href="#DejaVuSerif-56"/>
       <use x="63.623047" xlink:href="#DejaVuSerif-48"/>
       <use x="127.246094" xlink:href="#DejaVuSerif-48"/>
      </g>
     </g>
    </g>
    <g id="xtick_22">
     <g id="line2d_42">
      <g>
       <use style="stroke:#000000;" x="970.723173" xlink:href="#m8435e5c898" y="281.1175"/>
      </g>
     </g>
     <g id="text_32">
      <!-- 1000 -->
      <g transform="translate(955.453173 298.735625)scale(0.12 -0.12)">
       <use xlink:href="#DejaVuSerif-49"/>
       <use x="63.623047" xlink:href="#DejaVuSerif-48"/>
       <use x="127.246094" xlink:href="#DejaVuSerif-48"/>
       <use x="190.869141" xlink:href="#DejaVuSerif-48"/>
      </g>
     </g>
    </g>
    <g id="xtick_23">
     <g id="line2d_43">
      <g>
       <use style="stroke:#000000;" x="1010.963558" xlink:href="#m8435e5c898" y="281.1175"/>
      </g>
     </g>
     <g id="text_33">
      <!-- 1200 -->
      <g transform="translate(995.693558 298.735625)scale(0.12 -0.12)">
       <use xlink:href="#DejaVuSerif-49"/>
       <use x="63.623047" xlink:href="#DejaVuSerif-50"/>
       <use x="127.246094" xlink:href="#DejaVuSerif-48"/>
       <use x="190.869141" xlink:href="#DejaVuSerif-48"/>
      </g>
     </g>
    </g>
    <g id="xtick_24">
     <g id="line2d_44">
      <g>
       <use style="stroke:#000000;" x="1051.203942" xlink:href="#m8435e5c898" y="281.1175"/>
      </g>
     </g>
     <g id="text_34">
      <!-- 1400 -->
      <g transform="translate(1035.933942 298.735625)scale(0.12 -0.12)">
       <use xlink:href="#DejaVuSerif-49"/>
       <use x="63.623047" xlink:href="#DejaVuSerif-52"/>
       <use x="127.246094" xlink:href="#DejaVuSerif-48"/>
       <use x="190.869141" xlink:href="#DejaVuSerif-48"/>
      </g>
     </g>
    </g>
   </g>
   <g id="matplotlib.axis_6">
    <g id="ytick_17">
     <g id="line2d_45">
      <g>
       <use style="stroke:#000000;" x="769.52125" xlink:href="#m4d01241aa6" y="281.1175"/>
      </g>
     </g>
    </g>
    <g id="ytick_18">
     <g id="line2d_46">
      <g>
       <use style="stroke:#000000;" x="769.52125" xlink:href="#m4d01241aa6" y="251.5495"/>
      </g>
     </g>
    </g>
    <g id="ytick_19">
     <g id="line2d_47">
      <g>
       <use style="stroke:#000000;" x="769.52125" xlink:href="#m4d01241aa6" y="221.9815"/>
      </g>
     </g>
    </g>
    <g id="ytick_20">
     <g id="line2d_48">
      <g>
       <use style="stroke:#000000;" x="769.52125" xlink:href="#m4d01241aa6" y="192.4135"/>
      </g>
     </g>
    </g>
    <g id="ytick_21">
     <g id="line2d_49">
      <g>
       <use style="stroke:#000000;" x="769.52125" xlink:href="#m4d01241aa6" y="162.8455"/>
      </g>
     </g>
    </g>
    <g id="ytick_22">
     <g id="line2d_50">
      <g>
       <use style="stroke:#000000;" x="769.52125" xlink:href="#m4d01241aa6" y="133.2775"/>
      </g>
     </g>
    </g>
    <g id="ytick_23">
     <g id="line2d_51">
      <g>
       <use style="stroke:#000000;" x="769.52125" xlink:href="#m4d01241aa6" y="103.7095"/>
      </g>
     </g>
    </g>
    <g id="ytick_24">
     <g id="line2d_52">
      <g>
       <use style="stroke:#000000;" x="769.52125" xlink:href="#m4d01241aa6" y="74.1415"/>
      </g>
     </g>
    </g>
   </g>
   <g id="line2d_53">
    <path clip-path="url(#pa2943fce58)" d="M 771.585517 -1 
L 771.734471 192.146807 
L 772.338077 198.900331 
L 772.740481 199.665738 
L 773.545288 199.665738 
L 773.947692 201.688618 
L 774.350096 202.845716 
L 775.154904 202.956795 
L 775.356106 203.283804 
L 775.557308 203.284334 
L 775.75851 203.898159 
L 775.959712 203.898159 
L 776.362115 204.022857 
L 776.563317 204.735636 
L 777.770529 204.735636 
L 778.172933 204.97135 
L 779.581346 204.97135 
L 779.782548 205.386829 
L 780.386154 205.420261 
L 780.788558 205.66814 
L 781.190962 205.75767 
L 781.392163 206.038016 
L 782.398173 206.038016 
L 782.599375 206.213415 
L 784.410192 206.362358 
L 785.416202 206.68921 
L 786.22101 206.68921 
L 786.623413 207.218846 
L 787.025817 207.340403 
L 788.434231 207.340403 
L 788.635433 207.633507 
L 789.037837 207.633507 
L 789.239038 207.90871 
L 790.245048 208.037588 
L 790.44625 208.642784 
L 791.251058 208.746497 
L 791.653462 208.81785 
L 792.055865 209.036307 
L 792.257067 209.102889 
L 792.458269 209.293972 
L 793.464279 209.293972 
L 793.665481 209.584419 
L 794.872692 209.945165 
L 795.6775 209.987964 
L 796.68351 210.299369 
L 796.884712 210.299369 
L 797.085913 210.435752 
L 797.287115 210.8108 
L 797.689519 210.942819 
L 801.109952 211.037401 
L 801.512356 211.560338 
L 802.518365 211.586269 
L 808.353221 211.607914 
L 808.554423 211.741545 
L 808.956827 212.229724 
L 818.212115 212.324651 
L 818.413317 212.415275 
L 818.815721 212.873175 
L 829.077019 212.873175 
L 829.479423 213.223899 
L 829.881827 213.223899 
L 830.083029 213.516625 
L 837.929904 213.619204 
L 838.131106 213.758323 
L 838.332308 213.758323 
L 838.734712 214.160075 
L 848.794808 214.160075 
L 848.99601 214.649856 
L 849.197212 214.649856 
L 849.398413 214.80353 
L 859.056106 214.80353 
L 859.659712 215.144103 
L 859.860913 215.927495 
L 872.335433 215.992396 
L 872.536635 216.167451 
L 872.737837 216.828012 
L 872.939038 216.828012 
L 873.341442 217.058916 
L 883.60274 217.058916 
L 884.005144 217.90986 
L 884.809952 218.190331 
L 894.266442 218.190331 
L 894.467644 218.320206 
L 894.870048 219.188103 
L 895.07125 219.321752 
L 904.52774 219.321752 
L 904.728942 219.438842 
L 904.930144 220.045144 
L 905.332548 220.217384 
L 907.746971 220.252807 
L 921.831106 220.252807 
L 922.032308 220.453167 
L 929.476779 220.453167 
L 929.879183 220.806321 
L 947.38375 220.806321 
L 947.584952 221.359836 
L 966.095529 221.359836 
L 966.296731 221.584582 
L 979.576058 221.584582 
L 979.77726 221.724061 
L 979.978462 221.724061 
L 980.179663 221.913345 
L 1002.110673 221.913345 
L 1002.311875 222.466859 
L 1014.786394 222.491933 
L 1014.987596 222.716002 
L 1023.639279 222.716002 
L 1023.840481 223.020374 
L 1035.711394 223.020374 
L 1035.912596 223.573883 
L 1052.411154 223.573883 
L 1052.612356 223.847417 
L 1060.056827 223.847417 
L 1060.258029 224.127398 
L 1067.7025 224.127398 
L 1068.104904 224.680906 
L 1077.360192 224.680906 
L 1077.561394 224.978838 
L 1078.969808 224.978838 
L 1079.17101 225.121543 
L 1079.372212 229.76589 
L 1079.573413 230.510453 
L 1080.177019 230.510453 
L 1080.378221 232.128073 
L 1080.780625 232.128073 
L 1080.981827 232.438502 
L 1081.585433 232.438502 
L 1081.786635 233.442405 
L 1082.39024 233.442405 
L 1082.591442 233.745688 
L 1083.195048 236.980923 
L 1083.195048 236.980923 
" style="fill:none;stroke:#396ab1;stroke-linecap:square;"/>
   </g>
   <g id="line2d_54">
    <path clip-path="url(#pa2943fce58)" d="M 770.121972 -1 
L 770.124856 79.628652 
L 770.52726 89.016366 
L 770.728462 101.76469 
L 770.929663 122.679067 
L 771.332067 193.321591 
L 771.533269 193.655069 
L 771.734471 197.494423 
L 771.935673 197.727295 
L 772.136875 198.952554 
L 772.539279 199.588238 
L 772.941683 199.611558 
L 773.344087 199.981959 
L 773.74649 199.981959 
L 773.947692 201.189707 
L 774.551298 202.769175 
L 774.7525 202.781757 
L 774.953702 203.640269 
L 775.356106 203.640269 
L 775.557308 203.986487 
L 775.959712 205.869667 
L 776.160913 205.869667 
L 776.563317 206.68921 
L 776.764519 207.741359 
L 776.965721 207.741359 
L 777.368125 207.963483 
L 778.172933 207.991591 
L 778.374135 208.303683 
L 778.575337 208.364405 
L 778.776538 208.642784 
L 779.581346 208.642784 
L 780.184952 209.643026 
L 780.386154 209.655919 
L 780.587356 210.046656 
L 780.788558 210.057292 
L 780.98976 210.295669 
L 783.001779 210.358196 
L 783.605385 210.942819 
L 784.812596 210.942819 
L 785.617404 211.485815 
L 790.647452 211.586269 
L 790.848654 212.098129 
L 791.251058 212.098129 
L 791.653462 212.229724 
L 793.464279 212.309588 
L 793.665481 212.412816 
L 793.866683 212.814347 
L 797.689519 212.873175 
L 797.890721 213.13072 
L 798.091923 213.137443 
L 798.293125 213.320985 
L 799.097933 213.320985 
L 799.299135 213.516625 
L 801.91476 213.516625 
L 802.518365 214.04242 
L 802.920769 214.04242 
L 803.323173 214.160075 
L 805.536394 214.160075 
L 805.938798 214.452891 
L 806.542404 214.497641 
L 809.761635 214.604981 
L 809.962837 214.617309 
L 810.164038 214.80353 
L 813.383269 214.80353 
L 813.584471 215.053023 
L 815.194087 215.053023 
L 815.395288 215.270499 
L 815.998894 215.270499 
L 816.200096 215.524193 
L 816.803702 215.653826 
L 818.212115 215.674292 
L 818.413317 215.879998 
L 821.632548 215.927495 
L 821.83375 216.212185 
L 822.437356 216.254623 
L 824.449375 216.338084 
L 824.851779 216.495098 
L 825.455385 216.498577 
L 825.656587 216.748431 
L 827.065 216.850948 
L 827.869808 216.855426 
L 828.07101 217.058916 
L 835.917885 217.128317 
L 836.320288 217.18477 
L 836.52149 217.453466 
L 838.332308 217.456224 
L 838.53351 217.72665 
L 839.539519 217.819236 
L 840.143125 217.986345 
L 840.746731 218.027605 
L 842.75875 218.078959 
L 843.161154 218.190331 
L 847.587596 218.190331 
L 847.788798 218.373828 
L 848.191202 218.394881 
L 848.392404 218.657824 
L 849.599615 218.739813 
L 850.203221 218.954729 
L 851.209231 219.055036 
L 852.416442 219.258627 
L 858.4525 219.321752 
L 858.854904 219.395377 
L 859.056106 219.395377 
L 859.257308 219.54617 
L 860.062115 219.54617 
L 860.665721 219.859424 
L 862.476538 219.96184 
L 862.67774 220.121809 
L 864.086154 220.183845 
L 864.488558 220.252807 
L 871.128221 220.252807 
L 871.530625 220.380917 
L 872.939038 220.453167 
L 877.767885 220.528304 
L 878.170288 220.736339 
L 881.188317 220.806321 
L 886.218365 220.806321 
L 886.419567 221.094767 
L 886.821971 221.094767 
L 887.023173 221.273098 
L 897.083269 221.359836 
L 897.284471 221.557573 
L 901.30851 221.661224 
L 902.113317 221.848743 
L 910.161394 221.941599 
L 910.362596 221.970542 
L 910.563798 222.227688 
L 910.966202 222.227688 
L 911.167404 222.424387 
L 918.209471 222.466859 
L 918.410673 222.683264 
L 919.215481 222.716002 
L 923.843125 222.794151 
L 924.647933 223.005874 
L 931.891202 223.020374 
L 932.092404 223.312243 
L 932.69601 223.360608 
L 934.104423 223.431268 
L 934.305625 223.570279 
L 943.359712 223.593836 
L 943.762115 223.847417 
L 946.780144 223.847417 
L 946.981346 224.127398 
L 954.425817 224.158184 
L 955.633029 224.680906 
L 963.479904 224.680906 
L 963.681106 224.978838 
L 967.906346 224.978838 
L 968.107548 225.378824 
L 968.30875 225.425002 
L 968.509952 225.602295 
L 969.113558 227.169717 
L 969.31476 227.352244 
L 969.515962 230.087914 
L 969.717163 230.510453 
L 971.125577 230.59815 
L 971.326779 230.727597 
L 971.729183 231.922835 
L 971.930385 232.128073 
L 972.735192 232.128073 
L 972.936394 233.442405 
L 973.338798 233.454874 
L 973.54 233.745688 
L 974.54601 233.745688 
L 974.747212 233.884779 
L 974.948413 234.853862 
L 975.552019 235.363306 
L 976.155625 235.363306 
L 976.558029 235.904128 
L 976.759231 235.906426 
L 976.960433 236.735804 
L 977.76524 236.735804 
L 978.167644 236.980923 
L 979.374856 236.980923 
L 979.77726 238.151277 
L 979.978462 238.407602 
L 980.783269 238.598541 
L 981.185673 238.598541 
L 981.386875 238.825991 
L 981.588077 240.183006 
L 982.191683 240.216158 
L 982.795288 241.339012 
L 982.99649 241.489182 
L 983.197692 241.833776 
L 985.00851 241.833776 
L 986.014519 243.451393 
L 986.416923 243.612964 
L 986.618125 243.848715 
L 987.221731 243.952538 
L 987.422933 244.006634 
L 987.624135 244.417285 
L 988.026538 244.417285 
L 988.22774 244.627835 
L 988.428942 244.627835 
L 988.630144 247.252071 
L 988.831346 247.404305 
L 989.032548 247.404305 
L 989.434952 247.679726 
L 989.636154 248.792541 
L 990.038558 248.792541 
L 990.23976 258.060243 
L 990.440962 258.060243 
L 990.642163 270.065579 
L 991.044567 270.204146 
L 991.245769 270.204146 
L 991.446971 271.916419 
L 991.648173 275.489014 
L 992.251779 275.933103 
L 992.654183 276.341155 
L 992.855385 281.1175 
L 1083.195048 281.1175 
L 1083.195048 281.1175 
" style="fill:none;stroke:#cc2529;stroke-linecap:square;"/>
   </g>
   <g id="patch_9">
    <path d="M 769.52125 281.1175 
L 769.52125 59.3575 
" style="fill:none;stroke:#000000;stroke-linecap:square;stroke-linejoin:miter;stroke-width:0.8;"/>
   </g>
   <g id="patch_10">
    <path d="M 769.52125 281.1175 
L 1083.39625 281.1175 
" style="fill:none;stroke:#000000;stroke-linecap:square;stroke-linejoin:miter;stroke-width:0.8;"/>
   </g>
   <g id="text_35">
    <!-- 3 -->
    <g transform="translate(921.36875 19.3575)scale(0.16 -0.16)">
     <defs>
      <path d="M 9.71875 69.828125 
Q 15.4375 71.96875 20.671875 73.09375 
Q 25.921875 74.21875 30.515625 74.21875 
Q 41.21875 74.21875 47.21875 69.59375 
Q 53.21875 64.984375 53.21875 56.78125 
Q 53.21875 50.203125 49.0625 45.78125 
Q 44.921875 41.359375 37.3125 39.796875 
Q 46.296875 38.53125 51.25 33.28125 
Q 56.203125 28.03125 56.203125 19.671875 
Q 56.203125 9.46875 49.34375 4.015625 
Q 42.484375 -1.421875 29.59375 -1.421875 
Q 23.875 -1.421875 18.421875 -0.1875 
Q 12.984375 1.03125 7.625 3.515625 
L 7.625 17.671875 
L 13.09375 17.671875 
Q 13.578125 10.640625 17.828125 7.03125 
Q 22.078125 3.421875 29.78125 3.421875 
Q 37.25 3.421875 41.578125 7.734375 
Q 45.90625 12.0625 45.90625 19.578125 
Q 45.90625 28.171875 41.453125 32.59375 
Q 37.015625 37.015625 28.421875 37.015625 
L 23.78125 37.015625 
L 23.78125 42 
L 26.21875 42 
Q 34.765625 42 39.03125 45.53125 
Q 43.3125 49.078125 43.3125 56.203125 
Q 43.3125 62.59375 39.796875 65.984375 
Q 36.28125 69.390625 29.6875 69.390625 
Q 23.09375 69.390625 19.453125 66.265625 
Q 15.828125 63.140625 15.1875 56.984375 
L 9.71875 56.984375 
z
" id="DejaVuSerif-51"/>
     </defs>
     <use xlink:href="#DejaVuSerif-51"/>
    </g>
   </g>
   <g id="legend_1">
    <g id="patch_11">
     <path d="M 1091.79625 275.1175 
L 1204.076875 275.1175 
Q 1206.476875 275.1175 1206.476875 272.7175 
L 1206.476875 238.519375 
Q 1206.476875 236.119375 1204.076875 236.119375 
L 1091.79625 236.119375 
Q 1089.39625 236.119375 1089.39625 238.519375 
L 1089.39625 272.7175 
Q 1089.39625 275.1175 1091.79625 275.1175 
z
" style="fill:#ffffff;opacity:0.8;stroke:#cccccc;stroke-linejoin:miter;"/>
    </g>
    <g id="line2d_55">
     <path d="M 1094.19625 245.8375 
L 1118.19625 245.8375 
" style="fill:none;stroke:#396ab1;stroke-linecap:square;"/>
    </g>
    <g id="line2d_56"/>
    <g id="text_36">
     <!-- Base DA -->
     <g transform="translate(1127.79625 250.0375)scale(0.12 -0.12)">
      <defs>
       <path d="M 24.703125 5.171875 
L 39.3125 5.171875 
Q 48.09375 5.171875 52.140625 8.984375 
Q 56.203125 12.796875 56.203125 21.09375 
Q 56.203125 29.34375 52.171875 33.125 
Q 48.140625 36.921875 39.3125 36.921875 
L 24.703125 36.921875 
z
M 24.703125 42.09375 
L 37.109375 42.09375 
Q 45.125 42.09375 48.796875 45.171875 
Q 52.484375 48.25 52.484375 54.890625 
Q 52.484375 61.578125 48.796875 64.625 
Q 45.125 67.671875 37.109375 67.671875 
L 24.703125 67.671875 
z
M 5.515625 0 
L 5.515625 5.171875 
L 14.796875 5.171875 
L 14.796875 67.671875 
L 5.515625 67.671875 
L 5.515625 72.90625 
L 41.5 72.90625 
Q 52.546875 72.90625 58.125 68.390625 
Q 63.71875 63.875 63.71875 54.890625 
Q 63.71875 48.390625 59.828125 44.53125 
Q 55.953125 40.671875 48.484375 39.796875 
Q 57.765625 38.625 62.578125 33.859375 
Q 67.390625 29.109375 67.390625 21.09375 
Q 67.390625 10.25 60.546875 5.125 
Q 53.71875 0 39.203125 0 
z
" id="DejaVuSerif-66"/>
       <path d="M 39.796875 16.3125 
L 39.796875 27.296875 
L 28.21875 27.296875 
Q 21.53125 27.296875 18.25 24.40625 
Q 14.984375 21.53125 14.984375 15.578125 
Q 14.984375 10.15625 18.296875 6.984375 
Q 21.625 3.8125 27.296875 3.8125 
Q 32.90625 3.8125 36.34375 7.28125 
Q 39.796875 10.75 39.796875 16.3125 
z
M 48.78125 32.421875 
L 48.78125 5.171875 
L 56.78125 5.171875 
L 56.78125 0 
L 39.796875 0 
L 39.796875 5.609375 
Q 36.8125 2 32.90625 0.28125 
Q 29 -1.421875 23.78125 -1.421875 
Q 15.140625 -1.421875 10.0625 3.171875 
Q 4.984375 7.765625 4.984375 15.578125 
Q 4.984375 23.640625 10.796875 28.078125 
Q 16.609375 32.515625 27.203125 32.515625 
L 39.796875 32.515625 
L 39.796875 36.078125 
Q 39.796875 42 36.203125 45.234375 
Q 32.625 48.484375 26.125 48.484375 
Q 20.75 48.484375 17.578125 46.046875 
Q 14.40625 43.609375 13.625 38.8125 
L 8.984375 38.8125 
L 8.984375 49.3125 
Q 13.671875 51.3125 18.09375 52.3125 
Q 22.515625 53.328125 26.703125 53.328125 
Q 37.5 53.328125 43.140625 47.96875 
Q 48.78125 42.625 48.78125 32.421875 
z
" id="DejaVuSerif-97"/>
       <path d="M 5.609375 2.875 
L 5.609375 14.984375 
L 10.796875 14.984375 
Q 10.984375 9.1875 14.421875 6.296875 
Q 17.875 3.421875 24.609375 3.421875 
Q 30.671875 3.421875 33.84375 5.6875 
Q 37.015625 7.953125 37.015625 12.3125 
Q 37.015625 15.71875 34.6875 17.8125 
Q 32.375 19.921875 24.90625 22.3125 
L 18.40625 24.515625 
Q 11.71875 26.65625 8.71875 29.875 
Q 5.71875 33.109375 5.71875 38.09375 
Q 5.71875 45.21875 10.9375 49.265625 
Q 16.15625 53.328125 25.390625 53.328125 
Q 29.5 53.328125 34.03125 52.25 
Q 38.578125 51.171875 43.40625 49.125 
L 43.40625 37.796875 
L 38.234375 37.796875 
Q 38.03125 42.828125 34.703125 45.65625 
Q 31.390625 48.484375 25.6875 48.484375 
Q 20.015625 48.484375 17.109375 46.484375 
Q 14.203125 44.484375 14.203125 40.484375 
Q 14.203125 37.203125 16.40625 35.21875 
Q 18.609375 33.25 25.203125 31.203125 
L 32.328125 29 
Q 39.703125 26.703125 42.9375 23.265625 
Q 46.1875 19.828125 46.1875 14.40625 
Q 46.1875 7.03125 40.546875 2.796875 
Q 34.90625 -1.421875 25 -1.421875 
Q 19.96875 -1.421875 15.1875 -0.34375 
Q 10.40625 0.734375 5.609375 2.875 
z
" id="DejaVuSerif-115"/>
       <path d="M 54.203125 25 
L 15.484375 25 
L 15.484375 24.609375 
Q 15.484375 14.109375 19.4375 8.765625 
Q 23.390625 3.421875 31.109375 3.421875 
Q 37.015625 3.421875 40.796875 6.515625 
Q 44.578125 9.625 46.09375 15.71875 
L 53.328125 15.71875 
Q 51.171875 7.171875 45.375 2.875 
Q 39.59375 -1.421875 30.171875 -1.421875 
Q 18.796875 -1.421875 11.890625 6.078125 
Q 4.984375 13.578125 4.984375 25.984375 
Q 4.984375 38.28125 11.765625 45.796875 
Q 18.5625 53.328125 29.59375 53.328125 
Q 41.359375 53.328125 47.65625 46.0625 
Q 53.953125 38.8125 54.203125 25 
z
M 43.609375 30.171875 
Q 43.3125 39.265625 39.765625 43.875 
Q 36.234375 48.484375 29.59375 48.484375 
Q 23.390625 48.484375 19.828125 43.84375 
Q 16.265625 39.203125 15.484375 30.171875 
z
" id="DejaVuSerif-101"/>
       <path id="DejaVuSerif-32"/>
       <path d="M 24.703125 5.171875 
L 33.796875 5.171875 
Q 48 5.171875 55.59375 13.28125 
Q 63.1875 21.390625 63.1875 36.53125 
Q 63.1875 51.65625 55.609375 59.65625 
Q 48.046875 67.671875 33.796875 67.671875 
L 24.703125 67.671875 
z
M 5.515625 0 
L 5.515625 5.171875 
L 14.796875 5.171875 
L 14.796875 67.671875 
L 5.515625 67.671875 
L 5.515625 72.90625 
L 34.515625 72.90625 
Q 53.375 72.90625 63.890625 63.28125 
Q 74.421875 53.65625 74.421875 36.53125 
Q 74.421875 19.34375 63.875 9.671875 
Q 53.328125 0 34.515625 0 
z
" id="DejaVuSerif-68"/>
       <path d="M 20.015625 26.421875 
L 46.78125 26.421875 
L 33.40625 61.078125 
z
M -0.59375 0 
L -0.59375 5.171875 
L 5.8125 5.171875 
L 31.78125 72.90625 
L 39.984375 72.90625 
L 66.015625 5.171875 
L 73.1875 5.171875 
L 73.1875 0 
L 46.6875 0 
L 46.6875 5.171875 
L 54.78125 5.171875 
L 48.6875 21.1875 
L 18.015625 21.1875 
L 11.921875 5.171875 
L 19.921875 5.171875 
L 19.921875 0 
z
" id="DejaVuSerif-65"/>
      </defs>
      <use xlink:href="#DejaVuSerif-66"/>
      <use x="73.486328" xlink:href="#DejaVuSerif-97"/>
      <use x="133.105469" xlink:href="#DejaVuSerif-115"/>
      <use x="184.423828" xlink:href="#DejaVuSerif-101"/>
      <use x="243.603516" xlink:href="#DejaVuSerif-32"/>
      <use x="275.390625" xlink:href="#DejaVuSerif-68"/>
      <use x="355.566406" xlink:href="#DejaVuSerif-65"/>
     </g>
    </g>
    <g id="line2d_57">
     <path d="M 1094.19625 263.45125 
L 1118.19625 263.45125 
" style="fill:none;stroke:#cc2529;stroke-linecap:square;"/>
    </g>
    <g id="line2d_58"/>
    <g id="text_37">
     <!-- High VG DA -->
     <g transform="translate(1127.79625 267.65125)scale(0.12 -0.12)">
      <defs>
       <path d="M 5.515625 0 
L 5.515625 5.171875 
L 14.796875 5.171875 
L 14.796875 67.671875 
L 5.515625 67.671875 
L 5.515625 72.90625 
L 33.984375 72.90625 
L 33.984375 67.671875 
L 24.703125 67.671875 
L 24.703125 42.484375 
L 62.5 42.484375 
L 62.5 67.671875 
L 53.21875 67.671875 
L 53.21875 72.90625 
L 81.6875 72.90625 
L 81.6875 67.671875 
L 72.40625 67.671875 
L 72.40625 5.171875 
L 81.6875 5.171875 
L 81.6875 0 
L 53.21875 0 
L 53.21875 5.171875 
L 62.5 5.171875 
L 62.5 36.53125 
L 24.703125 36.53125 
L 24.703125 5.171875 
L 33.984375 5.171875 
L 33.984375 0 
z
" id="DejaVuSerif-72"/>
       <path d="M 9.71875 68.015625 
Q 9.71875 70.265625 11.34375 71.921875 
Q 12.984375 73.578125 15.28125 73.578125 
Q 17.53125 73.578125 19.15625 71.921875 
Q 20.796875 70.265625 20.796875 68.015625 
Q 20.796875 65.71875 19.1875 64.109375 
Q 17.578125 62.5 15.28125 62.5 
Q 12.984375 62.5 11.34375 64.109375 
Q 9.71875 65.71875 9.71875 68.015625 
z
M 21.1875 5.171875 
L 29.6875 5.171875 
L 29.6875 0 
L 3.609375 0 
L 3.609375 5.171875 
L 12.203125 5.171875 
L 12.203125 46.6875 
L 3.609375 46.6875 
L 3.609375 51.90625 
L 21.1875 51.90625 
z
" id="DejaVuSerif-105"/>
       <path d="M 52.484375 46.6875 
L 52.484375 1.125 
Q 52.484375 -10.0625 46.328125 -16.140625 
Q 40.1875 -22.21875 28.8125 -22.21875 
Q 23.6875 -22.21875 19 -21.28125 
Q 14.3125 -20.359375 10.015625 -18.5 
L 10.015625 -7.625 
L 14.703125 -7.625 
Q 15.578125 -12.703125 18.84375 -15.046875 
Q 22.125 -17.390625 28.21875 -17.390625 
Q 36.140625 -17.390625 39.8125 -12.921875 
Q 43.5 -8.453125 43.5 1.125 
L 43.5 8.109375 
Q 40.875 3.21875 36.796875 0.890625 
Q 32.71875 -1.421875 26.703125 -1.421875 
Q 17.140625 -1.421875 11.0625 6.171875 
Q 4.984375 13.765625 4.984375 25.984375 
Q 4.984375 38.1875 11.03125 45.75 
Q 17.09375 53.328125 26.703125 53.328125 
Q 32.71875 53.328125 36.796875 51 
Q 40.875 48.6875 43.5 43.796875 
L 43.5 51.90625 
L 61.078125 51.90625 
L 61.078125 46.6875 
z
M 43.5 28.515625 
Q 43.5 37.84375 39.90625 42.765625 
Q 36.328125 47.703125 29.5 47.703125 
Q 22.5625 47.703125 19.015625 42.234375 
Q 15.484375 36.765625 15.484375 25.984375 
Q 15.484375 15.234375 19.015625 9.71875 
Q 22.5625 4.203125 29.5 4.203125 
Q 36.328125 4.203125 39.90625 9.109375 
Q 43.5 14.015625 43.5 23.390625 
z
" id="DejaVuSerif-103"/>
       <path d="M 4.109375 0 
L 4.109375 5.171875 
L 12.203125 5.171875 
L 12.203125 70.796875 
L 3.609375 70.796875 
L 3.609375 75.984375 
L 21.1875 75.984375 
L 21.1875 42.671875 
Q 23.6875 47.953125 27.65625 50.640625 
Q 31.640625 53.328125 36.921875 53.328125 
Q 45.515625 53.328125 49.5625 48.390625 
Q 53.609375 43.453125 53.609375 33.015625 
L 53.609375 5.171875 
L 61.625 5.171875 
L 61.625 0 
L 36.8125 0 
L 36.8125 5.171875 
L 44.578125 5.171875 
L 44.578125 30.171875 
Q 44.578125 39.703125 42.25 43.1875 
Q 39.9375 46.6875 33.984375 46.6875 
Q 27.734375 46.6875 24.453125 42.140625 
Q 21.1875 37.59375 21.1875 28.90625 
L 21.1875 5.171875 
L 29 5.171875 
L 29 0 
z
" id="DejaVuSerif-104"/>
       <path d="M 17.484375 67.671875 
L 39.015625 11.71875 
L 60.5 67.671875 
L 52.296875 67.671875 
L 52.296875 72.90625 
L 73.6875 72.90625 
L 73.6875 67.671875 
L 66.609375 67.671875 
L 40.578125 0 
L 32.171875 0 
L 6.296875 67.671875 
L -0.984375 67.671875 
L -0.984375 72.90625 
L 25.59375 72.90625 
L 25.59375 67.671875 
z
" id="DejaVuSerif-86"/>
       <path d="M 64.015625 51.125 
Q 62.3125 60.25 56.890625 64.625 
Q 51.46875 69 41.796875 69 
Q 29.203125 69 23 60.890625 
Q 16.796875 52.78125 16.796875 36.375 
Q 16.796875 20.3125 23.1875 12.0625 
Q 29.59375 3.8125 42 3.8125 
Q 47.515625 3.8125 52.53125 5.171875 
Q 57.5625 6.546875 62.109375 9.28125 
L 62.109375 28.078125 
L 48.390625 28.078125 
L 48.390625 33.296875 
L 72.015625 33.296875 
L 72.015625 6.109375 
Q 65.53125 2.34375 58.03125 0.453125 
Q 50.53125 -1.421875 42 -1.421875 
Q 25.484375 -1.421875 15.546875 8.90625 
Q 5.609375 19.234375 5.609375 36.375 
Q 5.609375 53.65625 15.5625 63.9375 
Q 25.53125 74.21875 42.390625 74.21875 
Q 48.640625 74.21875 55.296875 72.78125 
Q 61.96875 71.34375 69.484375 68.40625 
L 69.484375 51.125 
z
" id="DejaVuSerif-71"/>
      </defs>
      <use xlink:href="#DejaVuSerif-72"/>
      <use x="87.207031" xlink:href="#DejaVuSerif-105"/>
      <use x="119.189453" xlink:href="#DejaVuSerif-103"/>
      <use x="183.203125" xlink:href="#DejaVuSerif-104"/>
      <use x="247.607422" xlink:href="#DejaVuSerif-32"/>
      <use x="279.394531" xlink:href="#DejaVuSerif-86"/>
      <use x="351.611328" xlink:href="#DejaVuSerif-71"/>
      <use x="431.494141" xlink:href="#DejaVuSerif-32"/>
      <use x="463.28125" xlink:href="#DejaVuSerif-68"/>
      <use x="543.457031" xlink:href="#DejaVuSerif-65"/>
     </g>
    </g>
   </g>
  </g>
  <g id="axes_4">
   <g id="matplotlib.axis_7">
    <g id="xtick_25">
     <g id="text_38">
      <!-- 0.0 -->
      <g style="opacity:0;" transform="translate(69.454375 297.235625)scale(0.12 -0.12)">
       <defs>
        <path d="M 9.421875 5.078125 
Q 9.421875 7.8125 11.28125 9.71875 
Q 13.140625 11.625 15.921875 11.625 
Q 18.609375 11.625 20.5 9.71875 
Q 22.40625 7.8125 22.40625 5.078125 
Q 22.40625 2.390625 20.5 0.484375 
Q 18.609375 -1.421875 15.921875 -1.421875 
Q 13.140625 -1.421875 11.28125 0.453125 
Q 9.421875 2.34375 9.421875 5.078125 
z
" id="DejaVuSerif-46"/>
       </defs>
       <use xlink:href="#DejaVuSerif-48"/>
       <use x="63.623047" xlink:href="#DejaVuSerif-46"/>
       <use x="95.410156" xlink:href="#DejaVuSerif-48"/>
      </g>
     </g>
    </g>
    <g id="xtick_26">
     <g id="text_39">
      <!-- 0.2 -->
      <g style="opacity:0;" transform="translate(270.334375 297.235625)scale(0.12 -0.12)">
       <use xlink:href="#DejaVuSerif-48"/>
       <use x="63.623047" xlink:href="#DejaVuSerif-46"/>
       <use x="95.410156" xlink:href="#DejaVuSerif-50"/>
      </g>
     </g>
    </g>
    <g id="xtick_27">
     <g id="text_40">
      <!-- 0.4 -->
      <g style="opacity:0;" transform="translate(471.214375 297.235625)scale(0.12 -0.12)">
       <use xlink:href="#DejaVuSerif-48"/>
       <use x="63.623047" xlink:href="#DejaVuSerif-46"/>
       <use x="95.410156" xlink:href="#DejaVuSerif-52"/>
      </g>
     </g>
    </g>
    <g id="xtick_28">
     <g id="text_41">
      <!-- 0.6 -->
      <g style="opacity:0;" transform="translate(672.094375 297.235625)scale(0.12 -0.12)">
       <use xlink:href="#DejaVuSerif-48"/>
       <use x="63.623047" xlink:href="#DejaVuSerif-46"/>
       <use x="95.410156" xlink:href="#DejaVuSerif-54"/>
      </g>
     </g>
    </g>
    <g id="xtick_29">
     <g id="text_42">
      <!-- 0.8 -->
      <g style="opacity:0;" transform="translate(872.974375 297.235625)scale(0.12 -0.12)">
       <use xlink:href="#DejaVuSerif-48"/>
       <use x="63.623047" xlink:href="#DejaVuSerif-46"/>
       <use x="95.410156" xlink:href="#DejaVuSerif-56"/>
      </g>
     </g>
    </g>
    <g id="xtick_30">
     <g id="text_43">
      <!-- 1.0 -->
      <g style="opacity:0;" transform="translate(1073.854375 297.235625)scale(0.12 -0.12)">
       <use xlink:href="#DejaVuSerif-49"/>
       <use x="63.623047" xlink:href="#DejaVuSerif-46"/>
       <use x="95.410156" xlink:href="#DejaVuSerif-48"/>
      </g>
     </g>
    </g>
    <g id="text_44">
     <!-- Intervals -->
     <g transform="translate(545.15625 331.88875)scale(0.16 -0.16)">
      <defs>
       <path d="M 24.703125 5.171875 
L 33.984375 5.171875 
L 33.984375 0 
L 5.515625 0 
L 5.515625 5.171875 
L 14.796875 5.171875 
L 14.796875 67.671875 
L 5.515625 67.671875 
L 5.515625 72.90625 
L 33.984375 72.90625 
L 33.984375 67.671875 
L 24.703125 67.671875 
z
" id="DejaVuSerif-73"/>
       <path d="M 4.109375 0 
L 4.109375 5.171875 
L 12.203125 5.171875 
L 12.203125 46.6875 
L 3.609375 46.6875 
L 3.609375 51.90625 
L 21.1875 51.90625 
L 21.1875 42.671875 
Q 23.6875 47.953125 27.65625 50.640625 
Q 31.640625 53.328125 36.921875 53.328125 
Q 45.515625 53.328125 49.5625 48.390625 
Q 53.609375 43.453125 53.609375 33.015625 
L 53.609375 5.171875 
L 61.625 5.171875 
L 61.625 0 
L 36.8125 0 
L 36.8125 5.171875 
L 44.578125 5.171875 
L 44.578125 30.171875 
Q 44.578125 39.703125 42.234375 43.234375 
Q 39.890625 46.78125 33.984375 46.78125 
Q 27.734375 46.78125 24.453125 42.203125 
Q 21.1875 37.640625 21.1875 28.90625 
L 21.1875 5.171875 
L 29 5.171875 
L 29 0 
z
" id="DejaVuSerif-110"/>
       <path d="M 10.796875 46.6875 
L 2.875 46.6875 
L 2.875 51.90625 
L 10.796875 51.90625 
L 10.796875 68.015625 
L 19.828125 68.015625 
L 19.828125 51.90625 
L 36.71875 51.90625 
L 36.71875 46.6875 
L 19.828125 46.6875 
L 19.828125 13.71875 
Q 19.828125 7.125 21.09375 5.265625 
Q 22.359375 3.421875 25.78125 3.421875 
Q 29.296875 3.421875 30.90625 5.484375 
Q 32.515625 7.5625 32.625 12.203125 
L 39.40625 12.203125 
Q 39.015625 5.125 35.546875 1.84375 
Q 32.078125 -1.421875 25 -1.421875 
Q 17.234375 -1.421875 14.015625 2.015625 
Q 10.796875 5.46875 10.796875 13.71875 
z
" id="DejaVuSerif-116"/>
       <path d="M 47.796875 52 
L 47.796875 39.015625 
L 42.625 39.015625 
Q 42.390625 42.875 40.484375 44.78125 
Q 38.578125 46.6875 34.90625 46.6875 
Q 28.265625 46.6875 24.71875 42.09375 
Q 21.1875 37.5 21.1875 28.90625 
L 21.1875 5.171875 
L 31.59375 5.171875 
L 31.59375 0 
L 4.109375 0 
L 4.109375 5.171875 
L 12.203125 5.171875 
L 12.203125 46.78125 
L 3.609375 46.78125 
L 3.609375 51.90625 
L 21.1875 51.90625 
L 21.1875 42.671875 
Q 23.828125 48.09375 27.96875 50.703125 
Q 32.125 53.328125 38.09375 53.328125 
Q 40.28125 53.328125 42.703125 52.984375 
Q 45.125 52.640625 47.796875 52 
z
" id="DejaVuSerif-114"/>
       <path d="M 24.703125 0 
L 5.609375 46.6875 
L -0.296875 46.6875 
L -0.296875 51.90625 
L 23.578125 51.90625 
L 23.578125 46.6875 
L 15.28125 46.6875 
L 29.890625 10.984375 
L 44.484375 46.6875 
L 36.71875 46.6875 
L 36.71875 51.90625 
L 56.203125 51.90625 
L 56.203125 46.6875 
L 50.390625 46.6875 
L 31.296875 0 
z
" id="DejaVuSerif-118"/>
       <path d="M 20.515625 5.171875 
L 29 5.171875 
L 29 0 
L 2.875 0 
L 2.875 5.171875 
L 11.53125 5.171875 
L 11.53125 70.796875 
L 2.875 70.796875 
L 2.875 75.984375 
L 20.515625 75.984375 
z
" id="DejaVuSerif-108"/>
      </defs>
      <use xlink:href="#DejaVuSerif-73"/>
      <use x="39.501953" xlink:href="#DejaVuSerif-110"/>
      <use x="103.90625" xlink:href="#DejaVuSerif-116"/>
      <use x="144.091797" xlink:href="#DejaVuSerif-101"/>
      <use x="203.271484" xlink:href="#DejaVuSerif-114"/>
      <use x="251.074219" xlink:href="#DejaVuSerif-118"/>
      <use x="307.568359" xlink:href="#DejaVuSerif-97"/>
      <use x="367.1875" xlink:href="#DejaVuSerif-108"/>
      <use x="399.169922" xlink:href="#DejaVuSerif-115"/>
     </g>
    </g>
   </g>
   <g id="matplotlib.axis_8">
    <g id="ytick_25">
     <g id="text_45">
      <!-- 0.0 -->
      <g style="opacity:0;" transform="translate(52.9125 285.676562)scale(0.12 -0.12)">
       <use xlink:href="#DejaVuSerif-48"/>
       <use x="63.623047" xlink:href="#DejaVuSerif-46"/>
       <use x="95.410156" xlink:href="#DejaVuSerif-48"/>
      </g>
     </g>
    </g>
    <g id="ytick_26">
     <g id="text_46">
      <!-- 0.2 -->
      <g style="opacity:0;" transform="translate(52.9125 241.324562)scale(0.12 -0.12)">
       <use xlink:href="#DejaVuSerif-48"/>
       <use x="63.623047" xlink:href="#DejaVuSerif-46"/>
       <use x="95.410156" xlink:href="#DejaVuSerif-50"/>
      </g>
     </g>
    </g>
    <g id="ytick_27">
     <g id="text_47">
      <!-- 0.4 -->
      <g style="opacity:0;" transform="translate(52.9125 196.972562)scale(0.12 -0.12)">
       <use xlink:href="#DejaVuSerif-48"/>
       <use x="63.623047" xlink:href="#DejaVuSerif-46"/>
       <use x="95.410156" xlink:href="#DejaVuSerif-52"/>
      </g>
     </g>
    </g>
    <g id="ytick_28">
     <g id="text_48">
      <!-- 0.6 -->
      <g style="opacity:0;" transform="translate(52.9125 152.620562)scale(0.12 -0.12)">
       <use xlink:href="#DejaVuSerif-48"/>
       <use x="63.623047" xlink:href="#DejaVuSerif-46"/>
       <use x="95.410156" xlink:href="#DejaVuSerif-54"/>
      </g>
     </g>
    </g>
    <g id="ytick_29">
     <g id="text_49">
      <!-- 0.8 -->
      <g style="opacity:0;" transform="translate(52.9125 108.268562)scale(0.12 -0.12)">
       <use xlink:href="#DejaVuSerif-48"/>
       <use x="63.623047" xlink:href="#DejaVuSerif-46"/>
       <use x="95.410156" xlink:href="#DejaVuSerif-56"/>
      </g>
     </g>
    </g>
    <g id="ytick_30">
     <g id="text_50">
      <!-- 1.0 -->
      <g style="opacity:0;" transform="translate(52.9125 63.916562)scale(0.12 -0.12)">
       <use xlink:href="#DejaVuSerif-49"/>
       <use x="63.623047" xlink:href="#DejaVuSerif-46"/>
       <use x="95.410156" xlink:href="#DejaVuSerif-48"/>
      </g>
     </g>
    </g>
    <g id="text_51">
     <!-- region Price ($/MWh) -->
     <g transform="translate(19.3575 258.10375)rotate(-90)scale(0.16 -0.16)">
      <defs>
       <path d="M 30.078125 3.421875 
Q 37.3125 3.421875 40.984375 9.125 
Q 44.671875 14.84375 44.671875 25.984375 
Q 44.671875 37.109375 40.984375 42.796875 
Q 37.3125 48.484375 30.078125 48.484375 
Q 22.859375 48.484375 19.171875 42.796875 
Q 15.484375 37.109375 15.484375 25.984375 
Q 15.484375 14.84375 19.1875 9.125 
Q 22.90625 3.421875 30.078125 3.421875 
z
M 30.078125 -1.421875 
Q 18.75 -1.421875 11.859375 6.078125 
Q 4.984375 13.578125 4.984375 25.984375 
Q 4.984375 38.375 11.84375 45.84375 
Q 18.703125 53.328125 30.078125 53.328125 
Q 41.453125 53.328125 48.3125 45.84375 
Q 55.171875 38.375 55.171875 25.984375 
Q 55.171875 13.578125 48.3125 6.078125 
Q 41.453125 -1.421875 30.078125 -1.421875 
z
" id="DejaVuSerif-111"/>
       <path d="M 24.703125 37.109375 
L 37.59375 37.109375 
Q 44.875 37.109375 48.671875 41.03125 
Q 52.484375 44.96875 52.484375 52.390625 
Q 52.484375 59.859375 48.671875 63.765625 
Q 44.875 67.671875 37.59375 67.671875 
L 24.703125 67.671875 
z
M 5.515625 0 
L 5.515625 5.171875 
L 14.796875 5.171875 
L 14.796875 67.671875 
L 5.515625 67.671875 
L 5.515625 72.90625 
L 39.984375 72.90625 
Q 50.921875 72.90625 57.3125 67.359375 
Q 63.71875 61.8125 63.71875 52.390625 
Q 63.71875 43.015625 57.3125 37.453125 
Q 50.921875 31.890625 39.984375 31.890625 
L 24.703125 31.890625 
L 24.703125 5.171875 
L 35.984375 5.171875 
L 35.984375 0 
z
" id="DejaVuSerif-80"/>
       <path d="M 51.421875 15.578125 
Q 49.515625 7.28125 44.09375 2.921875 
Q 38.671875 -1.421875 30.078125 -1.421875 
Q 18.75 -1.421875 11.859375 6.078125 
Q 4.984375 13.578125 4.984375 25.984375 
Q 4.984375 38.421875 11.859375 45.875 
Q 18.75 53.328125 30.078125 53.328125 
Q 35.015625 53.328125 39.890625 52.171875 
Q 44.78125 51.03125 49.703125 48.6875 
L 49.703125 35.40625 
L 44.484375 35.40625 
Q 43.453125 42.234375 40.015625 45.359375 
Q 36.578125 48.484375 30.171875 48.484375 
Q 22.90625 48.484375 19.1875 42.84375 
Q 15.484375 37.203125 15.484375 25.984375 
Q 15.484375 14.75 19.171875 9.078125 
Q 22.859375 3.421875 30.171875 3.421875 
Q 35.984375 3.421875 39.453125 6.4375 
Q 42.921875 9.46875 44.1875 15.578125 
z
" id="DejaVuSerif-99"/>
       <path d="M 31.890625 -15.578125 
Q 20.015625 -10.25 13.953125 1.296875 
Q 7.90625 12.84375 7.90625 30.171875 
Q 7.90625 47.5625 13.953125 59.109375 
Q 20.015625 70.65625 31.890625 75.984375 
L 31.890625 71.1875 
Q 24.359375 66.015625 21.09375 56.609375 
Q 17.828125 47.21875 17.828125 30.171875 
Q 17.828125 13.1875 21.09375 3.78125 
Q 24.359375 -5.609375 31.890625 -10.796875 
z
" id="DejaVuSerif-40"/>
       <path d="M 33.6875 3.328125 
Q 39.203125 3.8125 42.109375 6.5 
Q 45.015625 9.1875 45.015625 13.8125 
Q 45.015625 18.015625 42.140625 20.9375 
Q 39.265625 23.875 33.6875 25.390625 
z
M 28.8125 57.953125 
Q 23.78125 57.625 21 55.046875 
Q 18.21875 52.484375 18.21875 48.1875 
Q 18.21875 44.28125 20.78125 41.6875 
Q 23.34375 39.109375 28.8125 37.5 
z
M 8.59375 3.515625 
L 8.59375 17 
L 13.875 17 
Q 14.0625 10.296875 17.765625 6.875 
Q 21.484375 3.46875 28.8125 3.328125 
L 28.8125 27 
Q 17.578125 30.125 13.03125 34.203125 
Q 8.5 38.28125 8.5 45.015625 
Q 8.5 52.828125 13.859375 57.5625 
Q 19.234375 62.3125 28.8125 62.890625 
L 28.8125 75.984375 
L 33.6875 75.984375 
L 33.6875 62.890625 
Q 38.625 62.5 43.1875 61.296875 
Q 47.75 60.109375 52.09375 58.109375 
L 52.09375 45.3125 
L 46.78125 45.3125 
Q 46.1875 50.984375 42.8125 54.25 
Q 39.453125 57.515625 33.6875 57.953125 
L 33.6875 35.890625 
Q 45.703125 32.625 50.515625 28.390625 
Q 55.328125 24.171875 55.328125 17.09375 
Q 55.328125 8.984375 49.65625 4.09375 
Q 44 -0.78125 33.6875 -1.515625 
L 33.6875 -14.703125 
L 28.8125 -14.703125 
L 28.8125 -1.515625 
Q 24.125 -1.421875 19.09375 -0.171875 
Q 14.0625 1.078125 8.59375 3.515625 
z
" id="DejaVuSerif-36"/>
       <path d="M 25.875 72.90625 
L 33.6875 72.90625 
L 7.8125 -9.28125 
L 0 -9.28125 
z
" id="DejaVuSerif-47"/>
       <path d="M 5.515625 0 
L 5.515625 5.171875 
L 14.796875 5.171875 
L 14.796875 67.671875 
L 4.984375 67.671875 
L 4.984375 72.90625 
L 26.21875 72.90625 
L 51.8125 21 
L 77.390625 72.90625 
L 97.3125 72.90625 
L 97.3125 67.671875 
L 87.59375 67.671875 
L 87.59375 5.171875 
L 96.921875 5.171875 
L 96.921875 0 
L 68.40625 0 
L 68.40625 5.171875 
L 77.6875 5.171875 
L 77.6875 61.53125 
L 52.6875 10.6875 
L 45.796875 10.6875 
L 20.796875 61.53125 
L 20.796875 5.171875 
L 30.078125 5.171875 
L 30.078125 0 
z
" id="DejaVuSerif-77"/>
       <path d="M 76.21875 0 
L 68.21875 0 
L 51.515625 59.28125 
L 34.8125 0 
L 26.8125 0 
L 7.71875 67.671875 
L 0.484375 67.671875 
L 0.484375 72.90625 
L 27.09375 72.90625 
L 27.09375 67.671875 
L 18.015625 67.671875 
L 33.203125 13.8125 
L 49.8125 72.90625 
L 57.71875 72.90625 
L 74.609375 13.1875 
L 89.890625 67.671875 
L 81.5 67.671875 
L 81.5 72.90625 
L 102.484375 72.90625 
L 102.484375 67.671875 
L 95.3125 67.671875 
z
" id="DejaVuSerif-87"/>
       <path d="M 7.078125 -15.578125 
L 7.078125 -10.796875 
Q 14.59375 -5.609375 17.890625 3.78125 
Q 21.1875 13.1875 21.1875 30.171875 
Q 21.1875 47.21875 17.890625 56.609375 
Q 14.59375 66.015625 7.078125 71.1875 
L 7.078125 75.984375 
Q 19 70.65625 25.046875 59.109375 
Q 31.109375 47.5625 31.109375 30.171875 
Q 31.109375 12.84375 25.046875 1.296875 
Q 19 -10.25 7.078125 -15.578125 
z
" id="DejaVuSerif-41"/>
      </defs>
      <use xlink:href="#DejaVuSerif-114"/>
      <use x="47.802734" xlink:href="#DejaVuSerif-101"/>
      <use x="106.982422" xlink:href="#DejaVuSerif-103"/>
      <use x="170.996094" xlink:href="#DejaVuSerif-105"/>
      <use x="202.978516" xlink:href="#DejaVuSerif-111"/>
      <use x="263.183594" xlink:href="#DejaVuSerif-110"/>
      <use x="327.587891" xlink:href="#DejaVuSerif-32"/>
      <use x="359.375" xlink:href="#DejaVuSerif-80"/>
      <use x="426.660156" xlink:href="#DejaVuSerif-114"/>
      <use x="474.462891" xlink:href="#DejaVuSerif-105"/>
      <use x="506.445312" xlink:href="#DejaVuSerif-99"/>
      <use x="562.451172" xlink:href="#DejaVuSerif-101"/>
      <use x="621.630859" xlink:href="#DejaVuSerif-32"/>
      <use x="653.417969" xlink:href="#DejaVuSerif-40"/>
      <use x="692.431641" xlink:href="#DejaVuSerif-36"/>
      <use x="756.054688" xlink:href="#DejaVuSerif-47"/>
      <use x="789.746094" xlink:href="#DejaVuSerif-77"/>
      <use x="892.138672" xlink:href="#DejaVuSerif-87"/>
      <use x="994.921875" xlink:href="#DejaVuSerif-104"/>
      <use x="1059.326172" xlink:href="#DejaVuSerif-41"/>
     </g>
    </g>
   </g>
  </g>
 </g>
 <defs>
  <clipPath id="ped4030ac80">
   <rect height="221.76" width="313.875" x="78.99625" y="59.3575"/>
  </clipPath>
  <clipPath id="p94dd63d3ca">
   <rect height="221.76" width="313.875" x="424.25875" y="59.3575"/>
  </clipPath>
  <clipPath id="pa2943fce58">
   <rect height="221.76" width="313.875" x="769.52125" y="59.3575"/>
  </clipPath>
 </defs>
</svg>
